<?xml version="1.0" encoding="utf-8" standalone="no"?>
<!DOCTYPE svg PUBLIC "-//W3C//DTD SVG 1.1//EN"
  "http://www.w3.org/Graphics/SVG/1.1/DTD/svg11.dtd">
<svg xmlns:xlink="http://www.w3.org/1999/xlink" width="1152pt" height="432pt" viewBox="0 0 1152 432" xmlns="http://www.w3.org/2000/svg" version="1.1">
 <metadata>
  <rdf:RDF xmlns:dc="http://purl.org/dc/elements/1.1/" xmlns:cc="http://creativecommons.org/ns#" xmlns:rdf="http://www.w3.org/1999/02/22-rdf-syntax-ns#">
   <cc:Work>
    <dc:type rdf:resource="http://purl.org/dc/dcmitype/StillImage"/>
    <dc:date>2025-07-09T16:42:36.214628</dc:date>
    <dc:format>image/svg+xml</dc:format>
    <dc:creator>
     <cc:Agent>
      <dc:title>Matplotlib v3.9.2, https://matplotlib.org/</dc:title>
     </cc:Agent>
    </dc:creator>
   </cc:Work>
  </rdf:RDF>
 </metadata>
 <defs>
  <style type="text/css">*{stroke-linejoin: round; stroke-linecap: butt}</style>
 </defs>
 <g id="figure_1">
  <g id="patch_1">
   <path d="M 0 432 
L 1152 432 
L 1152 0 
L 0 0 
z
" style="fill: #ffffff"/>
  </g>
  <g id="axes_1">
   <g id="patch_2">
    <path d="M 144 367.2 
L 1036.8 367.2 
L 1036.8 51.84 
L 144 51.84 
z
" style="fill: #ffffff"/>
   </g>
   <g id="patch_3">
    <path d="M 915.634286 367.2 
L 922.922449 367.2 
L 922.922449 333.828571 
L 915.634286 333.828571 
z
" clip-path="url(#p5dd6714727)" style="fill: #e9d4d0"/>
   </g>
   <g id="patch_4">
    <path d="M 285.208163 367.2 
L 292.496327 367.2 
L 292.496327 267.085714 
L 285.208163 267.085714 
z
" clip-path="url(#p5dd6714727)" style="fill: #d8b3b6"/>
   </g>
   <g id="patch_5">
    <path d="M 476.522449 367.2 
L 483.810612 367.2 
L 483.810612 333.828571 
L 476.522449 333.828571 
z
" clip-path="url(#p5dd6714727)" style="fill: #d8b3b6"/>
   </g>
   <g id="patch_6">
    <path d="M 540.293878 367.2 
L 547.582041 367.2 
L 547.582041 333.828571 
L 540.293878 333.828571 
z
" clip-path="url(#p5dd6714727)" style="fill: #d8b3b6"/>
   </g>
   <g id="patch_7">
    <path d="M 604.065306 367.2 
L 611.353469 367.2 
L 611.353469 300.457143 
L 604.065306 300.457143 
z
" clip-path="url(#p5dd6714727)" style="fill: #d8b3b6"/>
   </g>
   <g id="patch_8">
    <path d="M 795.379592 367.2 
L 802.667755 367.2 
L 802.667755 300.457143 
L 795.379592 300.457143 
z
" clip-path="url(#p5dd6714727)" style="fill: #d8b3b6"/>
   </g>
   <g id="patch_9">
    <path d="M 859.15102 367.2 
L 866.439184 367.2 
L 866.439184 300.457143 
L 859.15102 300.457143 
z
" clip-path="url(#p5dd6714727)" style="fill: #d8b3b6"/>
   </g>
   <g id="patch_10">
    <path d="M 922.922449 367.2 
L 930.210612 367.2 
L 930.210612 300.457143 
L 922.922449 300.457143 
z
" clip-path="url(#p5dd6714727)" style="fill: #d8b3b6"/>
   </g>
   <g id="patch_11">
    <path d="M 164.953469 367.2 
L 172.241633 367.2 
L 172.241633 333.828571 
L 164.953469 333.828571 
z
" clip-path="url(#p5dd6714727)" style="fill: #c08fa0"/>
   </g>
   <g id="patch_12">
    <path d="M 228.724898 367.2 
L 236.013061 367.2 
L 236.013061 233.714286 
L 228.724898 233.714286 
z
" clip-path="url(#p5dd6714727)" style="fill: #c08fa0"/>
   </g>
   <g id="patch_13">
    <path d="M 292.496327 367.2 
L 299.78449 367.2 
L 299.78449 200.342857 
L 292.496327 200.342857 
z
" clip-path="url(#p5dd6714727)" style="fill: #c08fa0"/>
   </g>
   <g id="patch_14">
    <path d="M 356.267755 367.2 
L 363.555918 367.2 
L 363.555918 300.457143 
L 356.267755 300.457143 
z
" clip-path="url(#p5dd6714727)" style="fill: #c08fa0"/>
   </g>
   <g id="patch_15">
    <path d="M 483.810612 367.2 
L 491.098776 367.2 
L 491.098776 166.971429 
L 483.810612 166.971429 
z
" clip-path="url(#p5dd6714727)" style="fill: #c08fa0"/>
   </g>
   <g id="patch_16">
    <path d="M 547.582041 367.2 
L 554.870204 367.2 
L 554.870204 300.457143 
L 547.582041 300.457143 
z
" clip-path="url(#p5dd6714727)" style="fill: #c08fa0"/>
   </g>
   <g id="patch_17">
    <path d="M 611.353469 367.2 
L 618.641633 367.2 
L 618.641633 66.857143 
L 611.353469 66.857143 
z
" clip-path="url(#p5dd6714727)" style="fill: #c08fa0"/>
   </g>
   <g id="patch_18">
    <path d="M 802.667755 367.2 
L 809.955918 367.2 
L 809.955918 133.6 
L 802.667755 133.6 
z
" clip-path="url(#p5dd6714727)" style="fill: #c08fa0"/>
   </g>
   <g id="patch_19">
    <path d="M 866.439184 367.2 
L 873.727347 367.2 
L 873.727347 133.6 
L 866.439184 133.6 
z
" clip-path="url(#p5dd6714727)" style="fill: #c08fa0"/>
   </g>
   <g id="patch_20">
    <path d="M 930.210612 367.2 
L 937.498776 367.2 
L 937.498776 100.228571 
L 930.210612 100.228571 
z
" clip-path="url(#p5dd6714727)" style="fill: #c08fa0"/>
   </g>
   <g id="patch_21">
    <path d="M 993.982041 367.2 
L 1001.270204 367.2 
L 1001.270204 233.714286 
L 993.982041 233.714286 
z
" clip-path="url(#p5dd6714727)" style="fill: #c08fa0"/>
   </g>
   <g id="patch_22">
    <path d="M 172.241633 367.2 
L 179.529796 367.2 
L 179.529796 300.457143 
L 172.241633 300.457143 
z
" clip-path="url(#p5dd6714727)" style="fill: #a16f8d"/>
   </g>
   <g id="patch_23">
    <path d="M 236.013061 367.2 
L 243.301224 367.2 
L 243.301224 300.457143 
L 236.013061 300.457143 
z
" clip-path="url(#p5dd6714727)" style="fill: #a16f8d"/>
   </g>
   <g id="patch_24">
    <path d="M 299.78449 367.2 
L 307.072653 367.2 
L 307.072653 233.714286 
L 299.78449 233.714286 
z
" clip-path="url(#p5dd6714727)" style="fill: #a16f8d"/>
   </g>
   <g id="patch_25">
    <path d="M 363.555918 367.2 
L 370.844082 367.2 
L 370.844082 300.457143 
L 363.555918 300.457143 
z
" clip-path="url(#p5dd6714727)" style="fill: #a16f8d"/>
   </g>
   <g id="patch_26">
    <path d="M 491.098776 367.2 
L 498.386939 367.2 
L 498.386939 300.457143 
L 491.098776 300.457143 
z
" clip-path="url(#p5dd6714727)" style="fill: #a16f8d"/>
   </g>
   <g id="patch_27">
    <path d="M 554.870204 367.2 
L 562.158367 367.2 
L 562.158367 333.828571 
L 554.870204 333.828571 
z
" clip-path="url(#p5dd6714727)" style="fill: #a16f8d"/>
   </g>
   <g id="patch_28">
    <path d="M 618.641633 367.2 
L 625.929796 367.2 
L 625.929796 333.828571 
L 618.641633 333.828571 
z
" clip-path="url(#p5dd6714727)" style="fill: #a16f8d"/>
   </g>
   <g id="patch_29">
    <path d="M 809.955918 367.2 
L 817.244082 367.2 
L 817.244082 333.828571 
L 809.955918 333.828571 
z
" clip-path="url(#p5dd6714727)" style="fill: #a16f8d"/>
   </g>
   <g id="patch_30">
    <path d="M 873.727347 367.2 
L 881.01551 367.2 
L 881.01551 300.457143 
L 873.727347 300.457143 
z
" clip-path="url(#p5dd6714727)" style="fill: #a16f8d"/>
   </g>
   <g id="patch_31">
    <path d="M 937.498776 367.2 
L 944.786939 367.2 
L 944.786939 333.828571 
L 937.498776 333.828571 
z
" clip-path="url(#p5dd6714727)" style="fill: #a16f8d"/>
   </g>
   <g id="patch_32">
    <path d="M 1001.270204 367.2 
L 1008.558367 367.2 
L 1008.558367 267.085714 
L 1001.270204 267.085714 
z
" clip-path="url(#p5dd6714727)" style="fill: #a16f8d"/>
   </g>
   <g id="patch_33">
    <path d="M 243.301224 367.2 
L 250.589388 367.2 
L 250.589388 300.457143 
L 243.301224 300.457143 
z
" clip-path="url(#p5dd6714727)" style="fill: #7c5378"/>
   </g>
   <g id="patch_34">
    <path d="M 370.844082 367.2 
L 378.132245 367.2 
L 378.132245 333.828571 
L 370.844082 333.828571 
z
" clip-path="url(#p5dd6714727)" style="fill: #7c5378"/>
   </g>
   <g id="patch_35">
    <path d="M 498.386939 367.2 
L 505.675102 367.2 
L 505.675102 333.828571 
L 498.386939 333.828571 
z
" clip-path="url(#p5dd6714727)" style="fill: #7c5378"/>
   </g>
   <g id="patch_36">
    <path d="M 562.158367 367.2 
L 569.446531 367.2 
L 569.446531 333.828571 
L 562.158367 333.828571 
z
" clip-path="url(#p5dd6714727)" style="fill: #7c5378"/>
   </g>
   <g id="patch_37">
    <path d="M 625.929796 367.2 
L 633.217959 367.2 
L 633.217959 300.457143 
L 625.929796 300.457143 
z
" clip-path="url(#p5dd6714727)" style="fill: #7c5378"/>
   </g>
   <g id="patch_38">
    <path d="M 817.244082 367.2 
L 824.532245 367.2 
L 824.532245 333.828571 
L 817.244082 333.828571 
z
" clip-path="url(#p5dd6714727)" style="fill: #7c5378"/>
   </g>
   <g id="patch_39">
    <path d="M 881.01551 367.2 
L 888.303673 367.2 
L 888.303673 333.828571 
L 881.01551 333.828571 
z
" clip-path="url(#p5dd6714727)" style="fill: #7c5378"/>
   </g>
   <g id="patch_40">
    <path d="M 1008.558367 367.2 
L 1015.846531 367.2 
L 1015.846531 267.085714 
L 1008.558367 267.085714 
z
" clip-path="url(#p5dd6714727)" style="fill: #7c5378"/>
   </g>
   <g id="patch_41">
    <path d="M 378.132245 367.2 
L 385.420408 367.2 
L 385.420408 333.828571 
L 378.132245 333.828571 
z
" clip-path="url(#p5dd6714727)" style="fill: #53395c"/>
   </g>
   <g id="patch_42">
    <path d="M 569.446531 367.2 
L 576.734694 367.2 
L 576.734694 333.828571 
L 569.446531 333.828571 
z
" clip-path="url(#p5dd6714727)" style="fill: #53395c"/>
   </g>
   <g id="patch_43">
    <path d="M 888.303673 367.2 
L 895.591837 367.2 
L 895.591837 333.828571 
L 888.303673 333.828571 
z
" clip-path="url(#p5dd6714727)" style="fill: #53395c"/>
   </g>
   <g id="patch_44">
    <path d="M 194.106122 367.2 
L 201.394286 367.2 
L 201.394286 333.828571 
L 194.106122 333.828571 
z
" clip-path="url(#p5dd6714727)" style="fill: #2d223a"/>
   </g>
   <g id="patch_45">
    <path d="M 257.877551 367.2 
L 265.165714 367.2 
L 265.165714 333.828571 
L 257.877551 333.828571 
z
" clip-path="url(#p5dd6714727)" style="fill: #2d223a"/>
   </g>
   <g id="patch_46">
    <path d="M 321.64898 367.2 
L 328.937143 367.2 
L 328.937143 333.828571 
L 321.64898 333.828571 
z
" clip-path="url(#p5dd6714727)" style="fill: #2d223a"/>
   </g>
   <g id="patch_47">
    <path d="M 512.963265 367.2 
L 520.251429 367.2 
L 520.251429 333.828571 
L 512.963265 333.828571 
z
" clip-path="url(#p5dd6714727)" style="fill: #2d223a"/>
   </g>
   <g id="patch_48">
    <path d="M 576.734694 367.2 
L 584.022857 367.2 
L 584.022857 333.828571 
L 576.734694 333.828571 
z
" clip-path="url(#p5dd6714727)" style="fill: #2d223a"/>
   </g>
   <g id="patch_49">
    <path d="M 640.506122 367.2 
L 647.794286 367.2 
L 647.794286 333.828571 
L 640.506122 333.828571 
z
" clip-path="url(#p5dd6714727)" style="fill: #2d223a"/>
   </g>
   <g id="patch_50">
    <path d="M 831.820408 367.2 
L 839.108571 367.2 
L 839.108571 333.828571 
L 831.820408 333.828571 
z
" clip-path="url(#p5dd6714727)" style="fill: #2d223a"/>
   </g>
   <g id="patch_51">
    <path d="M 895.591837 367.2 
L 902.88 367.2 
L 902.88 333.828571 
L 895.591837 333.828571 
z
" clip-path="url(#p5dd6714727)" style="fill: #2d223a"/>
   </g>
   <g id="patch_52">
    <path d="M 959.363265 367.2 
L 966.651429 367.2 
L 966.651429 333.828571 
L 959.363265 333.828571 
z
" clip-path="url(#p5dd6714727)" style="fill: #2d223a"/>
   </g>
   <g id="patch_53">
    <path d="M 175.885714 367.2 
L 175.885714 367.2 
L 175.885714 367.2 
L 175.885714 367.2 
z
" clip-path="url(#p5dd6714727)" style="fill: #e9d4d0"/>
   </g>
   <g id="patch_54">
    <path d="M 175.885714 367.2 
L 175.885714 367.2 
L 175.885714 367.2 
L 175.885714 367.2 
z
" clip-path="url(#p5dd6714727)" style="fill: #d8b3b6"/>
   </g>
   <g id="patch_55">
    <path d="M 175.885714 367.2 
L 175.885714 367.2 
L 175.885714 367.2 
L 175.885714 367.2 
z
" clip-path="url(#p5dd6714727)" style="fill: #c08fa0"/>
   </g>
   <g id="patch_56">
    <path d="M 175.885714 367.2 
L 175.885714 367.2 
L 175.885714 367.2 
L 175.885714 367.2 
z
" clip-path="url(#p5dd6714727)" style="fill: #a16f8d"/>
   </g>
   <g id="patch_57">
    <path d="M 175.885714 367.2 
L 175.885714 367.2 
L 175.885714 367.2 
L 175.885714 367.2 
z
" clip-path="url(#p5dd6714727)" style="fill: #7c5378"/>
   </g>
   <g id="patch_58">
    <path d="M 175.885714 367.2 
L 175.885714 367.2 
L 175.885714 367.2 
L 175.885714 367.2 
z
" clip-path="url(#p5dd6714727)" style="fill: #53395c"/>
   </g>
   <g id="patch_59">
    <path d="M 175.885714 367.2 
L 175.885714 367.2 
L 175.885714 367.2 
L 175.885714 367.2 
z
" clip-path="url(#p5dd6714727)" style="fill: #2d223a"/>
   </g>
   <g id="patch_60">
    <path d="M 144 367.2 
L 207.771429 367.2 
L 207.771429 51.84 
L 144 51.84 
z
" clip-path="url(#p5dd6714727)" style="fill: #ffff00; opacity: 0.3; stroke: #ffff00; stroke-linejoin: miter"/>
   </g>
   <g id="patch_61">
    <path d="M 207.771429 367.2 
L 271.542857 367.2 
L 271.542857 51.84 
L 207.771429 51.84 
z
" clip-path="url(#p5dd6714727)" style="fill: #0000ff; opacity: 0.3; stroke: #0000ff; stroke-linejoin: miter"/>
   </g>
   <g id="patch_62">
    <path d="M 271.542857 367.2 
L 335.314286 367.2 
L 335.314286 51.84 
L 271.542857 51.84 
z
" clip-path="url(#p5dd6714727)" style="fill: #00ffff; opacity: 0.3; stroke: #00ffff; stroke-linejoin: miter"/>
   </g>
   <g id="patch_63">
    <path d="M 335.314286 367.2 
L 399.085714 367.2 
L 399.085714 51.84 
L 335.314286 51.84 
z
" clip-path="url(#p5dd6714727)" style="fill: #800000; opacity: 0.3; stroke: #800000; stroke-linejoin: miter"/>
   </g>
   <g id="patch_64">
    <path d="M 399.085714 367.2 
L 462.857143 367.2 
L 462.857143 51.84 
L 399.085714 51.84 
z
" clip-path="url(#p5dd6714727)" style="fill: #ff00ff; opacity: 0.3; stroke: #ff00ff; stroke-linejoin: miter"/>
   </g>
   <g id="patch_65">
    <path d="M 462.857143 367.2 
L 526.628571 367.2 
L 526.628571 51.84 
L 462.857143 51.84 
z
" clip-path="url(#p5dd6714727)" style="fill: #ff0000; opacity: 0.3; stroke: #ff0000; stroke-linejoin: miter"/>
   </g>
   <g id="patch_66">
    <path d="M 526.628571 367.2 
L 590.4 367.2 
L 590.4 51.84 
L 526.628571 51.84 
z
" clip-path="url(#p5dd6714727)" style="fill: #00ff00; opacity: 0.3; stroke: #00ff00; stroke-linejoin: miter"/>
   </g>
   <g id="patch_67">
    <path d="M 590.4 367.2 
L 654.171429 367.2 
L 654.171429 51.84 
L 590.4 51.84 
z
" clip-path="url(#p5dd6714727)" style="fill: #008080; opacity: 0.3; stroke: #008080; stroke-linejoin: miter"/>
   </g>
   <g id="patch_68">
    <path d="M 654.171429 367.2 
L 717.942857 367.2 
L 717.942857 51.84 
L 654.171429 51.84 
z
" clip-path="url(#p5dd6714727)" style="fill: #008000; opacity: 0.3; stroke: #008000; stroke-linejoin: miter"/>
   </g>
   <g id="patch_69">
    <path d="M 717.942857 367.2 
L 781.714286 367.2 
L 781.714286 51.84 
L 717.942857 51.84 
z
" clip-path="url(#p5dd6714727)" style="fill: #800080; opacity: 0.3; stroke: #800080; stroke-linejoin: miter"/>
   </g>
   <g id="patch_70">
    <path d="M 781.714286 367.2 
L 845.485714 367.2 
L 845.485714 51.84 
L 781.714286 51.84 
z
" clip-path="url(#p5dd6714727)" style="fill: #808000; opacity: 0.3; stroke: #808000; stroke-linejoin: miter"/>
   </g>
   <g id="patch_71">
    <path d="M 845.485714 367.2 
L 909.257143 367.2 
L 909.257143 51.84 
L 845.485714 51.84 
z
" clip-path="url(#p5dd6714727)" style="fill: #000080; opacity: 0.3; stroke: #000080; stroke-linejoin: miter"/>
   </g>
   <g id="patch_72">
    <path d="M 909.257143 367.2 
L 973.028571 367.2 
L 973.028571 51.84 
L 909.257143 51.84 
z
" clip-path="url(#p5dd6714727)" style="fill: #808080; opacity: 0.3; stroke: #808080; stroke-linejoin: miter"/>
   </g>
   <g id="patch_73">
    <path d="M 973.028571 367.2 
L 1036.8 367.2 
L 1036.8 51.84 
L 973.028571 51.84 
z
" clip-path="url(#p5dd6714727)" style="fill: #ffa500; opacity: 0.3; stroke: #ffa500; stroke-linejoin: miter"/>
   </g>
   <g id="matplotlib.axis_1">
    <g id="xtick_1">
     <g id="line2d_1">
      <defs>
       <path id="mf0c3335b21" d="M 0 0 
L 0 3.5 
" style="stroke: #000000; stroke-width: 0.8"/>
      </defs>
      <g>
       <use xlink:href="#mf0c3335b21" x="175.885714" y="367.2" style="stroke: #000000; stroke-width: 0.8"/>
      </g>
     </g>
     <g id="text_1">
      <!-- 0 1 2 3 4 5 6 -->
      <g transform="translate(144.082589 381.798437) scale(0.1 -0.1)">
       <defs>
        <path id="DejaVuSans-30" d="M 2034 4250 
Q 1547 4250 1301 3770 
Q 1056 3291 1056 2328 
Q 1056 1369 1301 889 
Q 1547 409 2034 409 
Q 2525 409 2770 889 
Q 3016 1369 3016 2328 
Q 3016 3291 2770 3770 
Q 2525 4250 2034 4250 
z
M 2034 4750 
Q 2819 4750 3233 4129 
Q 3647 3509 3647 2328 
Q 3647 1150 3233 529 
Q 2819 -91 2034 -91 
Q 1250 -91 836 529 
Q 422 1150 422 2328 
Q 422 3509 836 4129 
Q 1250 4750 2034 4750 
z
" transform="scale(0.015625)"/>
        <path id="DejaVuSans-20" transform="scale(0.015625)"/>
        <path id="DejaVuSans-31" d="M 794 531 
L 1825 531 
L 1825 4091 
L 703 3866 
L 703 4441 
L 1819 4666 
L 2450 4666 
L 2450 531 
L 3481 531 
L 3481 0 
L 794 0 
L 794 531 
z
" transform="scale(0.015625)"/>
        <path id="DejaVuSans-32" d="M 1228 531 
L 3431 531 
L 3431 0 
L 469 0 
L 469 531 
Q 828 903 1448 1529 
Q 2069 2156 2228 2338 
Q 2531 2678 2651 2914 
Q 2772 3150 2772 3378 
Q 2772 3750 2511 3984 
Q 2250 4219 1831 4219 
Q 1534 4219 1204 4116 
Q 875 4013 500 3803 
L 500 4441 
Q 881 4594 1212 4672 
Q 1544 4750 1819 4750 
Q 2544 4750 2975 4387 
Q 3406 4025 3406 3419 
Q 3406 3131 3298 2873 
Q 3191 2616 2906 2266 
Q 2828 2175 2409 1742 
Q 1991 1309 1228 531 
z
" transform="scale(0.015625)"/>
        <path id="DejaVuSans-33" d="M 2597 2516 
Q 3050 2419 3304 2112 
Q 3559 1806 3559 1356 
Q 3559 666 3084 287 
Q 2609 -91 1734 -91 
Q 1441 -91 1130 -33 
Q 819 25 488 141 
L 488 750 
Q 750 597 1062 519 
Q 1375 441 1716 441 
Q 2309 441 2620 675 
Q 2931 909 2931 1356 
Q 2931 1769 2642 2001 
Q 2353 2234 1838 2234 
L 1294 2234 
L 1294 2753 
L 1863 2753 
Q 2328 2753 2575 2939 
Q 2822 3125 2822 3475 
Q 2822 3834 2567 4026 
Q 2313 4219 1838 4219 
Q 1578 4219 1281 4162 
Q 984 4106 628 3988 
L 628 4550 
Q 988 4650 1302 4700 
Q 1616 4750 1894 4750 
Q 2613 4750 3031 4423 
Q 3450 4097 3450 3541 
Q 3450 3153 3228 2886 
Q 3006 2619 2597 2516 
z
" transform="scale(0.015625)"/>
        <path id="DejaVuSans-34" d="M 2419 4116 
L 825 1625 
L 2419 1625 
L 2419 4116 
z
M 2253 4666 
L 3047 4666 
L 3047 1625 
L 3713 1625 
L 3713 1100 
L 3047 1100 
L 3047 0 
L 2419 0 
L 2419 1100 
L 313 1100 
L 313 1709 
L 2253 4666 
z
" transform="scale(0.015625)"/>
        <path id="DejaVuSans-35" d="M 691 4666 
L 3169 4666 
L 3169 4134 
L 1269 4134 
L 1269 2991 
Q 1406 3038 1543 3061 
Q 1681 3084 1819 3084 
Q 2600 3084 3056 2656 
Q 3513 2228 3513 1497 
Q 3513 744 3044 326 
Q 2575 -91 1722 -91 
Q 1428 -91 1123 -41 
Q 819 9 494 109 
L 494 744 
Q 775 591 1075 516 
Q 1375 441 1709 441 
Q 2250 441 2565 725 
Q 2881 1009 2881 1497 
Q 2881 1984 2565 2268 
Q 2250 2553 1709 2553 
Q 1456 2553 1204 2497 
Q 953 2441 691 2322 
L 691 4666 
z
" transform="scale(0.015625)"/>
        <path id="DejaVuSans-36" d="M 2113 2584 
Q 1688 2584 1439 2293 
Q 1191 2003 1191 1497 
Q 1191 994 1439 701 
Q 1688 409 2113 409 
Q 2538 409 2786 701 
Q 3034 994 3034 1497 
Q 3034 2003 2786 2293 
Q 2538 2584 2113 2584 
z
M 3366 4563 
L 3366 3988 
Q 3128 4100 2886 4159 
Q 2644 4219 2406 4219 
Q 1781 4219 1451 3797 
Q 1122 3375 1075 2522 
Q 1259 2794 1537 2939 
Q 1816 3084 2150 3084 
Q 2853 3084 3261 2657 
Q 3669 2231 3669 1497 
Q 3669 778 3244 343 
Q 2819 -91 2113 -91 
Q 1303 -91 875 529 
Q 447 1150 447 2328 
Q 447 3434 972 4092 
Q 1497 4750 2381 4750 
Q 2619 4750 2861 4703 
Q 3103 4656 3366 4563 
z
" transform="scale(0.015625)"/>
       </defs>
       <use xlink:href="#DejaVuSans-30"/>
       <use xlink:href="#DejaVuSans-20" x="63.623047"/>
       <use xlink:href="#DejaVuSans-31" x="95.410156"/>
       <use xlink:href="#DejaVuSans-20" x="159.033203"/>
       <use xlink:href="#DejaVuSans-32" x="190.820312"/>
       <use xlink:href="#DejaVuSans-20" x="254.443359"/>
       <use xlink:href="#DejaVuSans-33" x="286.230469"/>
       <use xlink:href="#DejaVuSans-20" x="349.853516"/>
       <use xlink:href="#DejaVuSans-34" x="381.640625"/>
       <use xlink:href="#DejaVuSans-20" x="445.263672"/>
       <use xlink:href="#DejaVuSans-35" x="477.050781"/>
       <use xlink:href="#DejaVuSans-20" x="540.673828"/>
       <use xlink:href="#DejaVuSans-36" x="572.460938"/>
      </g>
     </g>
    </g>
    <g id="xtick_2">
     <g id="line2d_2">
      <g>
       <use xlink:href="#mf0c3335b21" x="239.657143" y="367.2" style="stroke: #000000; stroke-width: 0.8"/>
      </g>
     </g>
     <g id="text_2">
      <!-- 0 1 2 3 4 5 6 -->
      <g transform="translate(207.854018 381.798437) scale(0.1 -0.1)">
       <use xlink:href="#DejaVuSans-30"/>
       <use xlink:href="#DejaVuSans-20" x="63.623047"/>
       <use xlink:href="#DejaVuSans-31" x="95.410156"/>
       <use xlink:href="#DejaVuSans-20" x="159.033203"/>
       <use xlink:href="#DejaVuSans-32" x="190.820312"/>
       <use xlink:href="#DejaVuSans-20" x="254.443359"/>
       <use xlink:href="#DejaVuSans-33" x="286.230469"/>
       <use xlink:href="#DejaVuSans-20" x="349.853516"/>
       <use xlink:href="#DejaVuSans-34" x="381.640625"/>
       <use xlink:href="#DejaVuSans-20" x="445.263672"/>
       <use xlink:href="#DejaVuSans-35" x="477.050781"/>
       <use xlink:href="#DejaVuSans-20" x="540.673828"/>
       <use xlink:href="#DejaVuSans-36" x="572.460938"/>
      </g>
     </g>
    </g>
    <g id="xtick_3">
     <g id="line2d_3">
      <g>
       <use xlink:href="#mf0c3335b21" x="303.428571" y="367.2" style="stroke: #000000; stroke-width: 0.8"/>
      </g>
     </g>
     <g id="text_3">
      <!-- 0 1 2 3 4 5 6 -->
      <g transform="translate(271.625446 381.798437) scale(0.1 -0.1)">
       <use xlink:href="#DejaVuSans-30"/>
       <use xlink:href="#DejaVuSans-20" x="63.623047"/>
       <use xlink:href="#DejaVuSans-31" x="95.410156"/>
       <use xlink:href="#DejaVuSans-20" x="159.033203"/>
       <use xlink:href="#DejaVuSans-32" x="190.820312"/>
       <use xlink:href="#DejaVuSans-20" x="254.443359"/>
       <use xlink:href="#DejaVuSans-33" x="286.230469"/>
       <use xlink:href="#DejaVuSans-20" x="349.853516"/>
       <use xlink:href="#DejaVuSans-34" x="381.640625"/>
       <use xlink:href="#DejaVuSans-20" x="445.263672"/>
       <use xlink:href="#DejaVuSans-35" x="477.050781"/>
       <use xlink:href="#DejaVuSans-20" x="540.673828"/>
       <use xlink:href="#DejaVuSans-36" x="572.460938"/>
      </g>
     </g>
    </g>
    <g id="xtick_4">
     <g id="line2d_4">
      <g>
       <use xlink:href="#mf0c3335b21" x="367.2" y="367.2" style="stroke: #000000; stroke-width: 0.8"/>
      </g>
     </g>
     <g id="text_4">
      <!-- 0 1 2 3 4 5 6 -->
      <g transform="translate(335.396875 381.798437) scale(0.1 -0.1)">
       <use xlink:href="#DejaVuSans-30"/>
       <use xlink:href="#DejaVuSans-20" x="63.623047"/>
       <use xlink:href="#DejaVuSans-31" x="95.410156"/>
       <use xlink:href="#DejaVuSans-20" x="159.033203"/>
       <use xlink:href="#DejaVuSans-32" x="190.820312"/>
       <use xlink:href="#DejaVuSans-20" x="254.443359"/>
       <use xlink:href="#DejaVuSans-33" x="286.230469"/>
       <use xlink:href="#DejaVuSans-20" x="349.853516"/>
       <use xlink:href="#DejaVuSans-34" x="381.640625"/>
       <use xlink:href="#DejaVuSans-20" x="445.263672"/>
       <use xlink:href="#DejaVuSans-35" x="477.050781"/>
       <use xlink:href="#DejaVuSans-20" x="540.673828"/>
       <use xlink:href="#DejaVuSans-36" x="572.460938"/>
      </g>
     </g>
    </g>
    <g id="xtick_5">
     <g id="line2d_5">
      <g>
       <use xlink:href="#mf0c3335b21" x="430.971429" y="367.2" style="stroke: #000000; stroke-width: 0.8"/>
      </g>
     </g>
     <g id="text_5">
      <!-- 0 1 2 3 4 5 6 -->
      <g transform="translate(399.168304 381.798437) scale(0.1 -0.1)">
       <use xlink:href="#DejaVuSans-30"/>
       <use xlink:href="#DejaVuSans-20" x="63.623047"/>
       <use xlink:href="#DejaVuSans-31" x="95.410156"/>
       <use xlink:href="#DejaVuSans-20" x="159.033203"/>
       <use xlink:href="#DejaVuSans-32" x="190.820312"/>
       <use xlink:href="#DejaVuSans-20" x="254.443359"/>
       <use xlink:href="#DejaVuSans-33" x="286.230469"/>
       <use xlink:href="#DejaVuSans-20" x="349.853516"/>
       <use xlink:href="#DejaVuSans-34" x="381.640625"/>
       <use xlink:href="#DejaVuSans-20" x="445.263672"/>
       <use xlink:href="#DejaVuSans-35" x="477.050781"/>
       <use xlink:href="#DejaVuSans-20" x="540.673828"/>
       <use xlink:href="#DejaVuSans-36" x="572.460938"/>
      </g>
     </g>
    </g>
    <g id="xtick_6">
     <g id="line2d_6">
      <g>
       <use xlink:href="#mf0c3335b21" x="494.742857" y="367.2" style="stroke: #000000; stroke-width: 0.8"/>
      </g>
     </g>
     <g id="text_6">
      <!-- 0 1 2 3 4 5 6 -->
      <g transform="translate(462.939732 381.798437) scale(0.1 -0.1)">
       <use xlink:href="#DejaVuSans-30"/>
       <use xlink:href="#DejaVuSans-20" x="63.623047"/>
       <use xlink:href="#DejaVuSans-31" x="95.410156"/>
       <use xlink:href="#DejaVuSans-20" x="159.033203"/>
       <use xlink:href="#DejaVuSans-32" x="190.820312"/>
       <use xlink:href="#DejaVuSans-20" x="254.443359"/>
       <use xlink:href="#DejaVuSans-33" x="286.230469"/>
       <use xlink:href="#DejaVuSans-20" x="349.853516"/>
       <use xlink:href="#DejaVuSans-34" x="381.640625"/>
       <use xlink:href="#DejaVuSans-20" x="445.263672"/>
       <use xlink:href="#DejaVuSans-35" x="477.050781"/>
       <use xlink:href="#DejaVuSans-20" x="540.673828"/>
       <use xlink:href="#DejaVuSans-36" x="572.460938"/>
      </g>
     </g>
    </g>
    <g id="xtick_7">
     <g id="line2d_7">
      <g>
       <use xlink:href="#mf0c3335b21" x="558.514286" y="367.2" style="stroke: #000000; stroke-width: 0.8"/>
      </g>
     </g>
     <g id="text_7">
      <!-- 0 1 2 3 4 5 6 -->
      <g transform="translate(526.711161 381.798437) scale(0.1 -0.1)">
       <use xlink:href="#DejaVuSans-30"/>
       <use xlink:href="#DejaVuSans-20" x="63.623047"/>
       <use xlink:href="#DejaVuSans-31" x="95.410156"/>
       <use xlink:href="#DejaVuSans-20" x="159.033203"/>
       <use xlink:href="#DejaVuSans-32" x="190.820312"/>
       <use xlink:href="#DejaVuSans-20" x="254.443359"/>
       <use xlink:href="#DejaVuSans-33" x="286.230469"/>
       <use xlink:href="#DejaVuSans-20" x="349.853516"/>
       <use xlink:href="#DejaVuSans-34" x="381.640625"/>
       <use xlink:href="#DejaVuSans-20" x="445.263672"/>
       <use xlink:href="#DejaVuSans-35" x="477.050781"/>
       <use xlink:href="#DejaVuSans-20" x="540.673828"/>
       <use xlink:href="#DejaVuSans-36" x="572.460938"/>
      </g>
     </g>
    </g>
    <g id="xtick_8">
     <g id="line2d_8">
      <g>
       <use xlink:href="#mf0c3335b21" x="622.285714" y="367.2" style="stroke: #000000; stroke-width: 0.8"/>
      </g>
     </g>
     <g id="text_8">
      <!-- 0 1 2 3 4 5 6 -->
      <g transform="translate(590.482589 381.798437) scale(0.1 -0.1)">
       <use xlink:href="#DejaVuSans-30"/>
       <use xlink:href="#DejaVuSans-20" x="63.623047"/>
       <use xlink:href="#DejaVuSans-31" x="95.410156"/>
       <use xlink:href="#DejaVuSans-20" x="159.033203"/>
       <use xlink:href="#DejaVuSans-32" x="190.820312"/>
       <use xlink:href="#DejaVuSans-20" x="254.443359"/>
       <use xlink:href="#DejaVuSans-33" x="286.230469"/>
       <use xlink:href="#DejaVuSans-20" x="349.853516"/>
       <use xlink:href="#DejaVuSans-34" x="381.640625"/>
       <use xlink:href="#DejaVuSans-20" x="445.263672"/>
       <use xlink:href="#DejaVuSans-35" x="477.050781"/>
       <use xlink:href="#DejaVuSans-20" x="540.673828"/>
       <use xlink:href="#DejaVuSans-36" x="572.460938"/>
      </g>
     </g>
    </g>
    <g id="xtick_9">
     <g id="line2d_9">
      <g>
       <use xlink:href="#mf0c3335b21" x="686.057143" y="367.2" style="stroke: #000000; stroke-width: 0.8"/>
      </g>
     </g>
     <g id="text_9">
      <!-- 0 1 2 3 4 5 6 -->
      <g transform="translate(654.254018 381.798437) scale(0.1 -0.1)">
       <use xlink:href="#DejaVuSans-30"/>
       <use xlink:href="#DejaVuSans-20" x="63.623047"/>
       <use xlink:href="#DejaVuSans-31" x="95.410156"/>
       <use xlink:href="#DejaVuSans-20" x="159.033203"/>
       <use xlink:href="#DejaVuSans-32" x="190.820312"/>
       <use xlink:href="#DejaVuSans-20" x="254.443359"/>
       <use xlink:href="#DejaVuSans-33" x="286.230469"/>
       <use xlink:href="#DejaVuSans-20" x="349.853516"/>
       <use xlink:href="#DejaVuSans-34" x="381.640625"/>
       <use xlink:href="#DejaVuSans-20" x="445.263672"/>
       <use xlink:href="#DejaVuSans-35" x="477.050781"/>
       <use xlink:href="#DejaVuSans-20" x="540.673828"/>
       <use xlink:href="#DejaVuSans-36" x="572.460938"/>
      </g>
     </g>
    </g>
    <g id="xtick_10">
     <g id="line2d_10">
      <g>
       <use xlink:href="#mf0c3335b21" x="749.828571" y="367.2" style="stroke: #000000; stroke-width: 0.8"/>
      </g>
     </g>
     <g id="text_10">
      <!-- 0 1 2 3 4 5 6 -->
      <g transform="translate(718.025446 381.798437) scale(0.1 -0.1)">
       <use xlink:href="#DejaVuSans-30"/>
       <use xlink:href="#DejaVuSans-20" x="63.623047"/>
       <use xlink:href="#DejaVuSans-31" x="95.410156"/>
       <use xlink:href="#DejaVuSans-20" x="159.033203"/>
       <use xlink:href="#DejaVuSans-32" x="190.820312"/>
       <use xlink:href="#DejaVuSans-20" x="254.443359"/>
       <use xlink:href="#DejaVuSans-33" x="286.230469"/>
       <use xlink:href="#DejaVuSans-20" x="349.853516"/>
       <use xlink:href="#DejaVuSans-34" x="381.640625"/>
       <use xlink:href="#DejaVuSans-20" x="445.263672"/>
       <use xlink:href="#DejaVuSans-35" x="477.050781"/>
       <use xlink:href="#DejaVuSans-20" x="540.673828"/>
       <use xlink:href="#DejaVuSans-36" x="572.460938"/>
      </g>
     </g>
    </g>
    <g id="xtick_11">
     <g id="line2d_11">
      <g>
       <use xlink:href="#mf0c3335b21" x="813.6" y="367.2" style="stroke: #000000; stroke-width: 0.8"/>
      </g>
     </g>
     <g id="text_11">
      <!-- 0 1 2 3 4 5 6 -->
      <g transform="translate(781.796875 381.798437) scale(0.1 -0.1)">
       <use xlink:href="#DejaVuSans-30"/>
       <use xlink:href="#DejaVuSans-20" x="63.623047"/>
       <use xlink:href="#DejaVuSans-31" x="95.410156"/>
       <use xlink:href="#DejaVuSans-20" x="159.033203"/>
       <use xlink:href="#DejaVuSans-32" x="190.820312"/>
       <use xlink:href="#DejaVuSans-20" x="254.443359"/>
       <use xlink:href="#DejaVuSans-33" x="286.230469"/>
       <use xlink:href="#DejaVuSans-20" x="349.853516"/>
       <use xlink:href="#DejaVuSans-34" x="381.640625"/>
       <use xlink:href="#DejaVuSans-20" x="445.263672"/>
       <use xlink:href="#DejaVuSans-35" x="477.050781"/>
       <use xlink:href="#DejaVuSans-20" x="540.673828"/>
       <use xlink:href="#DejaVuSans-36" x="572.460938"/>
      </g>
     </g>
    </g>
    <g id="xtick_12">
     <g id="line2d_12">
      <g>
       <use xlink:href="#mf0c3335b21" x="877.371429" y="367.2" style="stroke: #000000; stroke-width: 0.8"/>
      </g>
     </g>
     <g id="text_12">
      <!-- 0 1 2 3 4 5 6 -->
      <g transform="translate(845.568304 381.798437) scale(0.1 -0.1)">
       <use xlink:href="#DejaVuSans-30"/>
       <use xlink:href="#DejaVuSans-20" x="63.623047"/>
       <use xlink:href="#DejaVuSans-31" x="95.410156"/>
       <use xlink:href="#DejaVuSans-20" x="159.033203"/>
       <use xlink:href="#DejaVuSans-32" x="190.820312"/>
       <use xlink:href="#DejaVuSans-20" x="254.443359"/>
       <use xlink:href="#DejaVuSans-33" x="286.230469"/>
       <use xlink:href="#DejaVuSans-20" x="349.853516"/>
       <use xlink:href="#DejaVuSans-34" x="381.640625"/>
       <use xlink:href="#DejaVuSans-20" x="445.263672"/>
       <use xlink:href="#DejaVuSans-35" x="477.050781"/>
       <use xlink:href="#DejaVuSans-20" x="540.673828"/>
       <use xlink:href="#DejaVuSans-36" x="572.460938"/>
      </g>
     </g>
    </g>
    <g id="xtick_13">
     <g id="line2d_13">
      <g>
       <use xlink:href="#mf0c3335b21" x="941.142857" y="367.2" style="stroke: #000000; stroke-width: 0.8"/>
      </g>
     </g>
     <g id="text_13">
      <!-- 0 1 2 3 4 5 6 -->
      <g transform="translate(909.339732 381.798437) scale(0.1 -0.1)">
       <use xlink:href="#DejaVuSans-30"/>
       <use xlink:href="#DejaVuSans-20" x="63.623047"/>
       <use xlink:href="#DejaVuSans-31" x="95.410156"/>
       <use xlink:href="#DejaVuSans-20" x="159.033203"/>
       <use xlink:href="#DejaVuSans-32" x="190.820312"/>
       <use xlink:href="#DejaVuSans-20" x="254.443359"/>
       <use xlink:href="#DejaVuSans-33" x="286.230469"/>
       <use xlink:href="#DejaVuSans-20" x="349.853516"/>
       <use xlink:href="#DejaVuSans-34" x="381.640625"/>
       <use xlink:href="#DejaVuSans-20" x="445.263672"/>
       <use xlink:href="#DejaVuSans-35" x="477.050781"/>
       <use xlink:href="#DejaVuSans-20" x="540.673828"/>
       <use xlink:href="#DejaVuSans-36" x="572.460938"/>
      </g>
     </g>
    </g>
    <g id="xtick_14">
     <g id="line2d_14">
      <g>
       <use xlink:href="#mf0c3335b21" x="1004.914286" y="367.2" style="stroke: #000000; stroke-width: 0.8"/>
      </g>
     </g>
     <g id="text_14">
      <!-- 0 1 2 3 4 5 6 -->
      <g transform="translate(973.111161 381.798437) scale(0.1 -0.1)">
       <use xlink:href="#DejaVuSans-30"/>
       <use xlink:href="#DejaVuSans-20" x="63.623047"/>
       <use xlink:href="#DejaVuSans-31" x="95.410156"/>
       <use xlink:href="#DejaVuSans-20" x="159.033203"/>
       <use xlink:href="#DejaVuSans-32" x="190.820312"/>
       <use xlink:href="#DejaVuSans-20" x="254.443359"/>
       <use xlink:href="#DejaVuSans-33" x="286.230469"/>
       <use xlink:href="#DejaVuSans-20" x="349.853516"/>
       <use xlink:href="#DejaVuSans-34" x="381.640625"/>
       <use xlink:href="#DejaVuSans-20" x="445.263672"/>
       <use xlink:href="#DejaVuSans-35" x="477.050781"/>
       <use xlink:href="#DejaVuSans-20" x="540.673828"/>
       <use xlink:href="#DejaVuSans-36" x="572.460938"/>
      </g>
     </g>
    </g>
    <g id="text_15">
     <!-- Metal Type (M1) -->
     <g transform="translate(534.593594 398.515938) scale(0.14 -0.14)">
      <defs>
       <path id="DejaVuSans-4d" d="M 628 4666 
L 1569 4666 
L 2759 1491 
L 3956 4666 
L 4897 4666 
L 4897 0 
L 4281 0 
L 4281 4097 
L 3078 897 
L 2444 897 
L 1241 4097 
L 1241 0 
L 628 0 
L 628 4666 
z
" transform="scale(0.015625)"/>
       <path id="DejaVuSans-65" d="M 3597 1894 
L 3597 1613 
L 953 1613 
Q 991 1019 1311 708 
Q 1631 397 2203 397 
Q 2534 397 2845 478 
Q 3156 559 3463 722 
L 3463 178 
Q 3153 47 2828 -22 
Q 2503 -91 2169 -91 
Q 1331 -91 842 396 
Q 353 884 353 1716 
Q 353 2575 817 3079 
Q 1281 3584 2069 3584 
Q 2775 3584 3186 3129 
Q 3597 2675 3597 1894 
z
M 3022 2063 
Q 3016 2534 2758 2815 
Q 2500 3097 2075 3097 
Q 1594 3097 1305 2825 
Q 1016 2553 972 2059 
L 3022 2063 
z
" transform="scale(0.015625)"/>
       <path id="DejaVuSans-74" d="M 1172 4494 
L 1172 3500 
L 2356 3500 
L 2356 3053 
L 1172 3053 
L 1172 1153 
Q 1172 725 1289 603 
Q 1406 481 1766 481 
L 2356 481 
L 2356 0 
L 1766 0 
Q 1100 0 847 248 
Q 594 497 594 1153 
L 594 3053 
L 172 3053 
L 172 3500 
L 594 3500 
L 594 4494 
L 1172 4494 
z
" transform="scale(0.015625)"/>
       <path id="DejaVuSans-61" d="M 2194 1759 
Q 1497 1759 1228 1600 
Q 959 1441 959 1056 
Q 959 750 1161 570 
Q 1363 391 1709 391 
Q 2188 391 2477 730 
Q 2766 1069 2766 1631 
L 2766 1759 
L 2194 1759 
z
M 3341 1997 
L 3341 0 
L 2766 0 
L 2766 531 
Q 2569 213 2275 61 
Q 1981 -91 1556 -91 
Q 1019 -91 701 211 
Q 384 513 384 1019 
Q 384 1609 779 1909 
Q 1175 2209 1959 2209 
L 2766 2209 
L 2766 2266 
Q 2766 2663 2505 2880 
Q 2244 3097 1772 3097 
Q 1472 3097 1187 3025 
Q 903 2953 641 2809 
L 641 3341 
Q 956 3463 1253 3523 
Q 1550 3584 1831 3584 
Q 2591 3584 2966 3190 
Q 3341 2797 3341 1997 
z
" transform="scale(0.015625)"/>
       <path id="DejaVuSans-6c" d="M 603 4863 
L 1178 4863 
L 1178 0 
L 603 0 
L 603 4863 
z
" transform="scale(0.015625)"/>
       <path id="DejaVuSans-54" d="M -19 4666 
L 3928 4666 
L 3928 4134 
L 2272 4134 
L 2272 0 
L 1638 0 
L 1638 4134 
L -19 4134 
L -19 4666 
z
" transform="scale(0.015625)"/>
       <path id="DejaVuSans-79" d="M 2059 -325 
Q 1816 -950 1584 -1140 
Q 1353 -1331 966 -1331 
L 506 -1331 
L 506 -850 
L 844 -850 
Q 1081 -850 1212 -737 
Q 1344 -625 1503 -206 
L 1606 56 
L 191 3500 
L 800 3500 
L 1894 763 
L 2988 3500 
L 3597 3500 
L 2059 -325 
z
" transform="scale(0.015625)"/>
       <path id="DejaVuSans-70" d="M 1159 525 
L 1159 -1331 
L 581 -1331 
L 581 3500 
L 1159 3500 
L 1159 2969 
Q 1341 3281 1617 3432 
Q 1894 3584 2278 3584 
Q 2916 3584 3314 3078 
Q 3713 2572 3713 1747 
Q 3713 922 3314 415 
Q 2916 -91 2278 -91 
Q 1894 -91 1617 61 
Q 1341 213 1159 525 
z
M 3116 1747 
Q 3116 2381 2855 2742 
Q 2594 3103 2138 3103 
Q 1681 3103 1420 2742 
Q 1159 2381 1159 1747 
Q 1159 1113 1420 752 
Q 1681 391 2138 391 
Q 2594 391 2855 752 
Q 3116 1113 3116 1747 
z
" transform="scale(0.015625)"/>
       <path id="DejaVuSans-28" d="M 1984 4856 
Q 1566 4138 1362 3434 
Q 1159 2731 1159 2009 
Q 1159 1288 1364 580 
Q 1569 -128 1984 -844 
L 1484 -844 
Q 1016 -109 783 600 
Q 550 1309 550 2009 
Q 550 2706 781 3412 
Q 1013 4119 1484 4856 
L 1984 4856 
z
" transform="scale(0.015625)"/>
       <path id="DejaVuSans-29" d="M 513 4856 
L 1013 4856 
Q 1481 4119 1714 3412 
Q 1947 2706 1947 2009 
Q 1947 1309 1714 600 
Q 1481 -109 1013 -844 
L 513 -844 
Q 928 -128 1133 580 
Q 1338 1288 1338 2009 
Q 1338 2731 1133 3434 
Q 928 4138 513 4856 
z
" transform="scale(0.015625)"/>
      </defs>
      <use xlink:href="#DejaVuSans-4d"/>
      <use xlink:href="#DejaVuSans-65" x="86.279297"/>
      <use xlink:href="#DejaVuSans-74" x="147.802734"/>
      <use xlink:href="#DejaVuSans-61" x="187.011719"/>
      <use xlink:href="#DejaVuSans-6c" x="248.291016"/>
      <use xlink:href="#DejaVuSans-20" x="276.074219"/>
      <use xlink:href="#DejaVuSans-54" x="307.861328"/>
      <use xlink:href="#DejaVuSans-79" x="353.320312"/>
      <use xlink:href="#DejaVuSans-70" x="412.5"/>
      <use xlink:href="#DejaVuSans-65" x="475.976562"/>
      <use xlink:href="#DejaVuSans-20" x="537.5"/>
      <use xlink:href="#DejaVuSans-28" x="569.287109"/>
      <use xlink:href="#DejaVuSans-4d" x="608.300781"/>
      <use xlink:href="#DejaVuSans-31" x="694.580078"/>
      <use xlink:href="#DejaVuSans-29" x="758.203125"/>
     </g>
    </g>
   </g>
   <g id="matplotlib.axis_2">
    <g id="ytick_1">
     <g id="line2d_15">
      <defs>
       <path id="m914c35ca0f" d="M 0 0 
L -3.5 0 
" style="stroke: #000000; stroke-width: 0.8"/>
      </defs>
      <g>
       <use xlink:href="#m914c35ca0f" x="144" y="367.2" style="stroke: #000000; stroke-width: 0.8"/>
      </g>
     </g>
     <g id="text_16">
      <!-- 0 -->
      <g transform="translate(130.6375 370.999219) scale(0.1 -0.1)">
       <use xlink:href="#DejaVuSans-30"/>
      </g>
     </g>
    </g>
    <g id="ytick_2">
     <g id="line2d_16">
      <g>
       <use xlink:href="#m914c35ca0f" x="144" y="329.156571" style="stroke: #000000; stroke-width: 0.8"/>
      </g>
     </g>
     <g id="text_17">
      <!-- 1 -->
      <g transform="translate(130.6375 332.95579) scale(0.1 -0.1)">
       <use xlink:href="#DejaVuSans-31"/>
      </g>
     </g>
    </g>
    <g id="ytick_3">
     <g id="line2d_17">
      <g>
       <use xlink:href="#m914c35ca0f" x="144" y="291.113143" style="stroke: #000000; stroke-width: 0.8"/>
      </g>
     </g>
     <g id="text_18">
      <!-- 2 -->
      <g transform="translate(130.6375 294.912362) scale(0.1 -0.1)">
       <use xlink:href="#DejaVuSans-32"/>
      </g>
     </g>
    </g>
    <g id="ytick_4">
     <g id="line2d_18">
      <g>
       <use xlink:href="#m914c35ca0f" x="144" y="253.069714" style="stroke: #000000; stroke-width: 0.8"/>
      </g>
     </g>
     <g id="text_19">
      <!-- 3 -->
      <g transform="translate(130.6375 256.868933) scale(0.1 -0.1)">
       <use xlink:href="#DejaVuSans-33"/>
      </g>
     </g>
    </g>
    <g id="ytick_5">
     <g id="line2d_19">
      <g>
       <use xlink:href="#m914c35ca0f" x="144" y="215.026286" style="stroke: #000000; stroke-width: 0.8"/>
      </g>
     </g>
     <g id="text_20">
      <!-- 4 -->
      <g transform="translate(130.6375 218.825504) scale(0.1 -0.1)">
       <use xlink:href="#DejaVuSans-34"/>
      </g>
     </g>
    </g>
    <g id="ytick_6">
     <g id="line2d_20">
      <g>
       <use xlink:href="#m914c35ca0f" x="144" y="176.982857" style="stroke: #000000; stroke-width: 0.8"/>
      </g>
     </g>
     <g id="text_21">
      <!-- 5 -->
      <g transform="translate(130.6375 180.782076) scale(0.1 -0.1)">
       <use xlink:href="#DejaVuSans-35"/>
      </g>
     </g>
    </g>
    <g id="ytick_7">
     <g id="line2d_21">
      <g>
       <use xlink:href="#m914c35ca0f" x="144" y="138.939429" style="stroke: #000000; stroke-width: 0.8"/>
      </g>
     </g>
     <g id="text_22">
      <!-- 6 -->
      <g transform="translate(130.6375 142.738647) scale(0.1 -0.1)">
       <use xlink:href="#DejaVuSans-36"/>
      </g>
     </g>
    </g>
    <g id="ytick_8">
     <g id="line2d_22">
      <g>
       <use xlink:href="#m914c35ca0f" x="144" y="100.896" style="stroke: #000000; stroke-width: 0.8"/>
      </g>
     </g>
     <g id="text_23">
      <!-- 7 -->
      <g transform="translate(130.6375 104.695219) scale(0.1 -0.1)">
       <defs>
        <path id="DejaVuSans-37" d="M 525 4666 
L 3525 4666 
L 3525 4397 
L 1831 0 
L 1172 0 
L 2766 4134 
L 525 4134 
L 525 4666 
z
" transform="scale(0.015625)"/>
       </defs>
       <use xlink:href="#DejaVuSans-37"/>
      </g>
     </g>
    </g>
    <g id="ytick_9">
     <g id="line2d_23">
      <g>
       <use xlink:href="#m914c35ca0f" x="144" y="62.852571" style="stroke: #000000; stroke-width: 0.8"/>
      </g>
     </g>
     <g id="text_24">
      <!-- 8 -->
      <g transform="translate(130.6375 66.65179) scale(0.1 -0.1)">
       <defs>
        <path id="DejaVuSans-38" d="M 2034 2216 
Q 1584 2216 1326 1975 
Q 1069 1734 1069 1313 
Q 1069 891 1326 650 
Q 1584 409 2034 409 
Q 2484 409 2743 651 
Q 3003 894 3003 1313 
Q 3003 1734 2745 1975 
Q 2488 2216 2034 2216 
z
M 1403 2484 
Q 997 2584 770 2862 
Q 544 3141 544 3541 
Q 544 4100 942 4425 
Q 1341 4750 2034 4750 
Q 2731 4750 3128 4425 
Q 3525 4100 3525 3541 
Q 3525 3141 3298 2862 
Q 3072 2584 2669 2484 
Q 3125 2378 3379 2068 
Q 3634 1759 3634 1313 
Q 3634 634 3220 271 
Q 2806 -91 2034 -91 
Q 1263 -91 848 271 
Q 434 634 434 1313 
Q 434 1759 690 2068 
Q 947 2378 1403 2484 
z
M 1172 3481 
Q 1172 3119 1398 2916 
Q 1625 2713 2034 2713 
Q 2441 2713 2670 2916 
Q 2900 3119 2900 3481 
Q 2900 3844 2670 4047 
Q 2441 4250 2034 4250 
Q 1625 4250 1398 4047 
Q 1172 3844 1172 3481 
z
" transform="scale(0.015625)"/>
       </defs>
       <use xlink:href="#DejaVuSans-38"/>
      </g>
     </g>
    </g>
    <g id="text_25">
     <!-- Percentage -->
     <g transform="translate(123.725937 248.891719) rotate(-90) scale(0.14 -0.14)">
      <defs>
       <path id="DejaVuSans-50" d="M 1259 4147 
L 1259 2394 
L 2053 2394 
Q 2494 2394 2734 2622 
Q 2975 2850 2975 3272 
Q 2975 3691 2734 3919 
Q 2494 4147 2053 4147 
L 1259 4147 
z
M 628 4666 
L 2053 4666 
Q 2838 4666 3239 4311 
Q 3641 3956 3641 3272 
Q 3641 2581 3239 2228 
Q 2838 1875 2053 1875 
L 1259 1875 
L 1259 0 
L 628 0 
L 628 4666 
z
" transform="scale(0.015625)"/>
       <path id="DejaVuSans-72" d="M 2631 2963 
Q 2534 3019 2420 3045 
Q 2306 3072 2169 3072 
Q 1681 3072 1420 2755 
Q 1159 2438 1159 1844 
L 1159 0 
L 581 0 
L 581 3500 
L 1159 3500 
L 1159 2956 
Q 1341 3275 1631 3429 
Q 1922 3584 2338 3584 
Q 2397 3584 2469 3576 
Q 2541 3569 2628 3553 
L 2631 2963 
z
" transform="scale(0.015625)"/>
       <path id="DejaVuSans-63" d="M 3122 3366 
L 3122 2828 
Q 2878 2963 2633 3030 
Q 2388 3097 2138 3097 
Q 1578 3097 1268 2742 
Q 959 2388 959 1747 
Q 959 1106 1268 751 
Q 1578 397 2138 397 
Q 2388 397 2633 464 
Q 2878 531 3122 666 
L 3122 134 
Q 2881 22 2623 -34 
Q 2366 -91 2075 -91 
Q 1284 -91 818 406 
Q 353 903 353 1747 
Q 353 2603 823 3093 
Q 1294 3584 2113 3584 
Q 2378 3584 2631 3529 
Q 2884 3475 3122 3366 
z
" transform="scale(0.015625)"/>
       <path id="DejaVuSans-6e" d="M 3513 2113 
L 3513 0 
L 2938 0 
L 2938 2094 
Q 2938 2591 2744 2837 
Q 2550 3084 2163 3084 
Q 1697 3084 1428 2787 
Q 1159 2491 1159 1978 
L 1159 0 
L 581 0 
L 581 3500 
L 1159 3500 
L 1159 2956 
Q 1366 3272 1645 3428 
Q 1925 3584 2291 3584 
Q 2894 3584 3203 3211 
Q 3513 2838 3513 2113 
z
" transform="scale(0.015625)"/>
       <path id="DejaVuSans-67" d="M 2906 1791 
Q 2906 2416 2648 2759 
Q 2391 3103 1925 3103 
Q 1463 3103 1205 2759 
Q 947 2416 947 1791 
Q 947 1169 1205 825 
Q 1463 481 1925 481 
Q 2391 481 2648 825 
Q 2906 1169 2906 1791 
z
M 3481 434 
Q 3481 -459 3084 -895 
Q 2688 -1331 1869 -1331 
Q 1566 -1331 1297 -1286 
Q 1028 -1241 775 -1147 
L 775 -588 
Q 1028 -725 1275 -790 
Q 1522 -856 1778 -856 
Q 2344 -856 2625 -561 
Q 2906 -266 2906 331 
L 2906 616 
Q 2728 306 2450 153 
Q 2172 0 1784 0 
Q 1141 0 747 490 
Q 353 981 353 1791 
Q 353 2603 747 3093 
Q 1141 3584 1784 3584 
Q 2172 3584 2450 3431 
Q 2728 3278 2906 2969 
L 2906 3500 
L 3481 3500 
L 3481 434 
z
" transform="scale(0.015625)"/>
      </defs>
      <use xlink:href="#DejaVuSans-50"/>
      <use xlink:href="#DejaVuSans-65" x="56.677734"/>
      <use xlink:href="#DejaVuSans-72" x="118.201172"/>
      <use xlink:href="#DejaVuSans-63" x="157.064453"/>
      <use xlink:href="#DejaVuSans-65" x="212.044922"/>
      <use xlink:href="#DejaVuSans-6e" x="273.568359"/>
      <use xlink:href="#DejaVuSans-74" x="336.947266"/>
      <use xlink:href="#DejaVuSans-61" x="376.15625"/>
      <use xlink:href="#DejaVuSans-67" x="437.435547"/>
      <use xlink:href="#DejaVuSans-65" x="500.912109"/>
     </g>
    </g>
   </g>
   <g id="patch_74">
    <path d="M 144 367.2 
L 144 51.84 
" style="fill: none; stroke: #000000; stroke-width: 0.8; stroke-linejoin: miter; stroke-linecap: square"/>
   </g>
   <g id="patch_75">
    <path d="M 1036.8 367.2 
L 1036.8 51.84 
" style="fill: none; stroke: #000000; stroke-width: 0.8; stroke-linejoin: miter; stroke-linecap: square"/>
   </g>
   <g id="patch_76">
    <path d="M 144 367.2 
L 1036.8 367.2 
" style="fill: none; stroke: #000000; stroke-width: 0.8; stroke-linejoin: miter; stroke-linecap: square"/>
   </g>
   <g id="patch_77">
    <path d="M 144 51.84 
L 1036.8 51.84 
" style="fill: none; stroke: #000000; stroke-width: 0.8; stroke-linejoin: miter; stroke-linecap: square"/>
   </g>
   <g id="text_26">
    <!-- Fe -->
    <g transform="translate(167.957277 98.400375) scale(0.12 -0.12)">
     <defs>
      <path id="DejaVuSans-Bold-46" d="M 588 4666 
L 3834 4666 
L 3834 3756 
L 1791 3756 
L 1791 2888 
L 3713 2888 
L 3713 1978 
L 1791 1978 
L 1791 0 
L 588 0 
L 588 4666 
z
" transform="scale(0.015625)"/>
      <path id="DejaVuSans-Bold-65" d="M 4031 1759 
L 4031 1441 
L 1416 1441 
Q 1456 1047 1700 850 
Q 1944 653 2381 653 
Q 2734 653 3104 758 
Q 3475 863 3866 1075 
L 3866 213 
Q 3469 63 3072 -14 
Q 2675 -91 2278 -91 
Q 1328 -91 801 392 
Q 275 875 275 1747 
Q 275 2603 792 3093 
Q 1309 3584 2216 3584 
Q 3041 3584 3536 3087 
Q 4031 2591 4031 1759 
z
M 2881 2131 
Q 2881 2450 2695 2645 
Q 2509 2841 2209 2841 
Q 1884 2841 1681 2658 
Q 1478 2475 1428 2131 
L 2881 2131 
z
" transform="scale(0.015625)"/>
     </defs>
     <use xlink:href="#DejaVuSans-Bold-46"/>
     <use xlink:href="#DejaVuSans-Bold-65" x="64.310547"/>
    </g>
   </g>
   <g id="text_27">
    <!-- Co -->
    <g transform="translate(231.131518 98.400375) scale(0.12 -0.12)">
     <defs>
      <path id="DejaVuSans-Bold-43" d="M 4288 256 
Q 3956 84 3597 -3 
Q 3238 -91 2847 -91 
Q 1681 -91 1000 561 
Q 319 1213 319 2328 
Q 319 3447 1000 4098 
Q 1681 4750 2847 4750 
Q 3238 4750 3597 4662 
Q 3956 4575 4288 4403 
L 4288 3438 
Q 3953 3666 3628 3772 
Q 3303 3878 2944 3878 
Q 2300 3878 1931 3465 
Q 1563 3053 1563 2328 
Q 1563 1606 1931 1193 
Q 2300 781 2944 781 
Q 3303 781 3628 887 
Q 3953 994 4288 1222 
L 4288 256 
z
" transform="scale(0.015625)"/>
      <path id="DejaVuSans-Bold-6f" d="M 2203 2784 
Q 1831 2784 1636 2517 
Q 1441 2250 1441 1747 
Q 1441 1244 1636 976 
Q 1831 709 2203 709 
Q 2569 709 2762 976 
Q 2956 1244 2956 1747 
Q 2956 2250 2762 2517 
Q 2569 2784 2203 2784 
z
M 2203 3584 
Q 3106 3584 3614 3096 
Q 4122 2609 4122 1747 
Q 4122 884 3614 396 
Q 3106 -91 2203 -91 
Q 1297 -91 786 396 
Q 275 884 275 1747 
Q 275 2609 786 3096 
Q 1297 3584 2203 3584 
z
" transform="scale(0.015625)"/>
     </defs>
     <use xlink:href="#DejaVuSans-Bold-43"/>
     <use xlink:href="#DejaVuSans-Bold-6f" x="73.388672"/>
    </g>
   </g>
   <g id="text_28">
    <!-- Ni -->
    <g transform="translate(296.350446 98.400375) scale(0.12 -0.12)">
     <defs>
      <path id="DejaVuSans-Bold-4e" d="M 588 4666 
L 1931 4666 
L 3628 1466 
L 3628 4666 
L 4769 4666 
L 4769 0 
L 3425 0 
L 1728 3200 
L 1728 0 
L 588 0 
L 588 4666 
z
" transform="scale(0.015625)"/>
      <path id="DejaVuSans-Bold-69" d="M 538 3500 
L 1656 3500 
L 1656 0 
L 538 0 
L 538 3500 
z
M 538 4863 
L 1656 4863 
L 1656 3950 
L 538 3950 
L 538 4863 
z
" transform="scale(0.015625)"/>
     </defs>
     <use xlink:href="#DejaVuSans-Bold-4e"/>
     <use xlink:href="#DejaVuSans-Bold-69" x="83.691406"/>
    </g>
   </g>
   <g id="text_29">
    <!-- Cu -->
    <g transform="translate(358.525312 98.400375) scale(0.12 -0.12)">
     <defs>
      <path id="DejaVuSans-Bold-75" d="M 500 1363 
L 500 3500 
L 1625 3500 
L 1625 3150 
Q 1625 2866 1622 2436 
Q 1619 2006 1619 1863 
Q 1619 1441 1641 1255 
Q 1663 1069 1716 984 
Q 1784 875 1895 815 
Q 2006 756 2150 756 
Q 2500 756 2700 1025 
Q 2900 1294 2900 1772 
L 2900 3500 
L 4019 3500 
L 4019 0 
L 2900 0 
L 2900 506 
Q 2647 200 2364 54 
Q 2081 -91 1741 -91 
Q 1134 -91 817 281 
Q 500 653 500 1363 
z
" transform="scale(0.015625)"/>
     </defs>
     <use xlink:href="#DejaVuSans-Bold-43"/>
     <use xlink:href="#DejaVuSans-Bold-75" x="73.388672"/>
    </g>
   </g>
   <g id="text_30">
    <!-- Zn -->
    <g transform="translate(422.349241 98.400375) scale(0.12 -0.12)">
     <defs>
      <path id="DejaVuSans-Bold-5a" d="M 359 4666 
L 4281 4666 
L 4281 3938 
L 1778 909 
L 4353 909 
L 4353 0 
L 288 0 
L 288 728 
L 2791 3756 
L 359 3756 
L 359 4666 
z
" transform="scale(0.015625)"/>
      <path id="DejaVuSans-Bold-6e" d="M 4056 2131 
L 4056 0 
L 2931 0 
L 2931 347 
L 2931 1631 
Q 2931 2084 2911 2256 
Q 2891 2428 2841 2509 
Q 2775 2619 2662 2680 
Q 2550 2741 2406 2741 
Q 2056 2741 1856 2470 
Q 1656 2200 1656 1722 
L 1656 0 
L 538 0 
L 538 3500 
L 1656 3500 
L 1656 2988 
Q 1909 3294 2193 3439 
Q 2478 3584 2822 3584 
Q 3428 3584 3742 3212 
Q 4056 2841 4056 2131 
z
" transform="scale(0.015625)"/>
     </defs>
     <use xlink:href="#DejaVuSans-Bold-5a"/>
     <use xlink:href="#DejaVuSans-Bold-6e" x="72.509766"/>
    </g>
   </g>
   <g id="text_31">
    <!-- Ru -->
    <g transform="translate(485.851607 98.400375) scale(0.12 -0.12)">
     <defs>
      <path id="DejaVuSans-Bold-52" d="M 2297 2597 
Q 2675 2597 2839 2737 
Q 3003 2878 3003 3200 
Q 3003 3519 2839 3656 
Q 2675 3794 2297 3794 
L 1791 3794 
L 1791 2597 
L 2297 2597 
z
M 1791 1766 
L 1791 0 
L 588 0 
L 588 4666 
L 2425 4666 
Q 3347 4666 3776 4356 
Q 4206 4047 4206 3378 
Q 4206 2916 3982 2619 
Q 3759 2322 3309 2181 
Q 3556 2125 3751 1926 
Q 3947 1728 4147 1325 
L 4800 0 
L 3519 0 
L 2950 1159 
Q 2778 1509 2601 1637 
Q 2425 1766 2131 1766 
L 1791 1766 
z
" transform="scale(0.015625)"/>
     </defs>
     <use xlink:href="#DejaVuSans-Bold-52"/>
     <use xlink:href="#DejaVuSans-Bold-75" x="77.001953"/>
    </g>
   </g>
   <g id="text_32">
    <!-- Rh -->
    <g transform="translate(549.623036 98.400375) scale(0.12 -0.12)">
     <defs>
      <path id="DejaVuSans-Bold-68" d="M 4056 2131 
L 4056 0 
L 2931 0 
L 2931 347 
L 2931 1625 
Q 2931 2084 2911 2256 
Q 2891 2428 2841 2509 
Q 2775 2619 2662 2680 
Q 2550 2741 2406 2741 
Q 2056 2741 1856 2470 
Q 1656 2200 1656 1722 
L 1656 0 
L 538 0 
L 538 4863 
L 1656 4863 
L 1656 2988 
Q 1909 3294 2193 3439 
Q 2478 3584 2822 3584 
Q 3428 3584 3742 3212 
Q 4056 2841 4056 2131 
z
" transform="scale(0.015625)"/>
     </defs>
     <use xlink:href="#DejaVuSans-Bold-52"/>
     <use xlink:href="#DejaVuSans-Bold-68" x="77.001953"/>
    </g>
   </g>
   <g id="text_33">
    <!-- Pd -->
    <g transform="translate(613.593214 98.400375) scale(0.12 -0.12)">
     <defs>
      <path id="DejaVuSans-Bold-50" d="M 588 4666 
L 2584 4666 
Q 3475 4666 3951 4270 
Q 4428 3875 4428 3144 
Q 4428 2409 3951 2014 
Q 3475 1619 2584 1619 
L 1791 1619 
L 1791 0 
L 588 0 
L 588 4666 
z
M 1791 3794 
L 1791 2491 
L 2456 2491 
Q 2806 2491 2997 2661 
Q 3188 2831 3188 3144 
Q 3188 3456 2997 3625 
Q 2806 3794 2456 3794 
L 1791 3794 
z
" transform="scale(0.015625)"/>
      <path id="DejaVuSans-Bold-64" d="M 2919 2988 
L 2919 4863 
L 4044 4863 
L 4044 0 
L 2919 0 
L 2919 506 
Q 2688 197 2409 53 
Q 2131 -91 1766 -91 
Q 1119 -91 703 423 
Q 288 938 288 1747 
Q 288 2556 703 3070 
Q 1119 3584 1766 3584 
Q 2128 3584 2408 3439 
Q 2688 3294 2919 2988 
z
M 2181 722 
Q 2541 722 2730 984 
Q 2919 1247 2919 1747 
Q 2919 2247 2730 2509 
Q 2541 2772 2181 2772 
Q 1825 2772 1636 2509 
Q 1447 2247 1447 1747 
Q 1447 1247 1636 984 
Q 1825 722 2181 722 
z
" transform="scale(0.015625)"/>
     </defs>
     <use xlink:href="#DejaVuSans-Bold-50"/>
     <use xlink:href="#DejaVuSans-Bold-64" x="73.291016"/>
    </g>
   </g>
   <g id="text_34">
    <!-- Ag -->
    <g transform="translate(677.119018 98.306625) scale(0.12 -0.12)">
     <defs>
      <path id="DejaVuSans-Bold-41" d="M 3419 850 
L 1538 850 
L 1241 0 
L 31 0 
L 1759 4666 
L 3194 4666 
L 4922 0 
L 3713 0 
L 3419 850 
z
M 1838 1716 
L 3116 1716 
L 2478 3572 
L 1838 1716 
z
" transform="scale(0.015625)"/>
      <path id="DejaVuSans-Bold-67" d="M 2919 594 
Q 2688 288 2409 144 
Q 2131 0 1766 0 
Q 1125 0 706 504 
Q 288 1009 288 1791 
Q 288 2575 706 3076 
Q 1125 3578 1766 3578 
Q 2131 3578 2409 3434 
Q 2688 3291 2919 2981 
L 2919 3500 
L 4044 3500 
L 4044 353 
Q 4044 -491 3511 -936 
Q 2978 -1381 1966 -1381 
Q 1638 -1381 1331 -1331 
Q 1025 -1281 716 -1178 
L 716 -306 
Q 1009 -475 1290 -558 
Q 1572 -641 1856 -641 
Q 2406 -641 2662 -400 
Q 2919 -159 2919 353 
L 2919 594 
z
M 2181 2772 
Q 1834 2772 1640 2515 
Q 1447 2259 1447 1791 
Q 1447 1309 1634 1061 
Q 1822 813 2181 813 
Q 2531 813 2725 1069 
Q 2919 1325 2919 1791 
Q 2919 2259 2725 2515 
Q 2531 2772 2181 2772 
z
" transform="scale(0.015625)"/>
     </defs>
     <use xlink:href="#DejaVuSans-Bold-41"/>
     <use xlink:href="#DejaVuSans-Bold-67" x="77.392578"/>
    </g>
   </g>
   <g id="text_35">
    <!-- Cd -->
    <g transform="translate(741.130446 98.400375) scale(0.12 -0.12)">
     <use xlink:href="#DejaVuSans-Bold-43"/>
     <use xlink:href="#DejaVuSans-Bold-64" x="73.388672"/>
    </g>
   </g>
   <g id="text_36">
    <!-- Os -->
    <g transform="translate(804.928125 98.400375) scale(0.12 -0.12)">
     <defs>
      <path id="DejaVuSans-Bold-4f" d="M 2719 3878 
Q 2169 3878 1866 3472 
Q 1563 3066 1563 2328 
Q 1563 1594 1866 1187 
Q 2169 781 2719 781 
Q 3272 781 3575 1187 
Q 3878 1594 3878 2328 
Q 3878 3066 3575 3472 
Q 3272 3878 2719 3878 
z
M 2719 4750 
Q 3844 4750 4481 4106 
Q 5119 3463 5119 2328 
Q 5119 1197 4481 553 
Q 3844 -91 2719 -91 
Q 1597 -91 958 553 
Q 319 1197 319 2328 
Q 319 3463 958 4106 
Q 1597 4750 2719 4750 
z
" transform="scale(0.015625)"/>
      <path id="DejaVuSans-Bold-73" d="M 3272 3391 
L 3272 2541 
Q 2913 2691 2578 2766 
Q 2244 2841 1947 2841 
Q 1628 2841 1473 2761 
Q 1319 2681 1319 2516 
Q 1319 2381 1436 2309 
Q 1553 2238 1856 2203 
L 2053 2175 
Q 2913 2066 3209 1816 
Q 3506 1566 3506 1031 
Q 3506 472 3093 190 
Q 2681 -91 1863 -91 
Q 1516 -91 1145 -36 
Q 775 19 384 128 
L 384 978 
Q 719 816 1070 734 
Q 1422 653 1784 653 
Q 2113 653 2278 743 
Q 2444 834 2444 1013 
Q 2444 1163 2330 1236 
Q 2216 1309 1875 1350 
L 1678 1375 
Q 931 1469 631 1722 
Q 331 1975 331 2491 
Q 331 3047 712 3315 
Q 1094 3584 1881 3584 
Q 2191 3584 2531 3537 
Q 2872 3491 3272 3391 
z
" transform="scale(0.015625)"/>
     </defs>
     <use xlink:href="#DejaVuSans-Bold-4f"/>
     <use xlink:href="#DejaVuSans-Bold-73" x="85.009766"/>
    </g>
   </g>
   <g id="text_37">
    <!-- Ir -->
    <g transform="translate(872.180491 98.400375) scale(0.12 -0.12)">
     <defs>
      <path id="DejaVuSans-Bold-49" d="M 588 4666 
L 1791 4666 
L 1791 0 
L 588 0 
L 588 4666 
z
" transform="scale(0.015625)"/>
      <path id="DejaVuSans-Bold-72" d="M 3138 2547 
Q 2991 2616 2845 2648 
Q 2700 2681 2553 2681 
Q 2122 2681 1889 2404 
Q 1656 2128 1656 1613 
L 1656 0 
L 538 0 
L 538 3500 
L 1656 3500 
L 1656 2925 
Q 1872 3269 2151 3426 
Q 2431 3584 2822 3584 
Q 2878 3584 2943 3579 
Q 3009 3575 3134 3559 
L 3138 2547 
z
" transform="scale(0.015625)"/>
     </defs>
     <use xlink:href="#DejaVuSans-Bold-49"/>
     <use xlink:href="#DejaVuSans-Bold-72" x="37.207031"/>
    </g>
   </g>
   <g id="text_38">
    <!-- Pt -->
    <g transform="translate(933.877232 98.400375) scale(0.12 -0.12)">
     <defs>
      <path id="DejaVuSans-Bold-74" d="M 1759 4494 
L 1759 3500 
L 2913 3500 
L 2913 2700 
L 1759 2700 
L 1759 1216 
Q 1759 972 1856 886 
Q 1953 800 2241 800 
L 2816 800 
L 2816 0 
L 1856 0 
Q 1194 0 917 276 
Q 641 553 641 1216 
L 641 2700 
L 84 2700 
L 84 3500 
L 641 3500 
L 641 4494 
L 1759 4494 
z
" transform="scale(0.015625)"/>
     </defs>
     <use xlink:href="#DejaVuSans-Bold-50"/>
     <use xlink:href="#DejaVuSans-Bold-74" x="73.291016"/>
    </g>
   </g>
   <g id="text_39">
    <!-- Au -->
    <g transform="translate(995.999598 98.400375) scale(0.12 -0.12)">
     <use xlink:href="#DejaVuSans-Bold-41"/>
     <use xlink:href="#DejaVuSans-Bold-75" x="77.392578"/>
    </g>
   </g>
   <g id="text_40">
    <!-- Normalized Distribution of Interaction Energy ($E_{\mathrm{int}}$) for Different Metal Types -->
    <g transform="translate(246.78 45.84) scale(0.18 -0.18)">
     <defs>
      <path id="DejaVuSans-4e" d="M 628 4666 
L 1478 4666 
L 3547 763 
L 3547 4666 
L 4159 4666 
L 4159 0 
L 3309 0 
L 1241 3903 
L 1241 0 
L 628 0 
L 628 4666 
z
" transform="scale(0.015625)"/>
      <path id="DejaVuSans-6f" d="M 1959 3097 
Q 1497 3097 1228 2736 
Q 959 2375 959 1747 
Q 959 1119 1226 758 
Q 1494 397 1959 397 
Q 2419 397 2687 759 
Q 2956 1122 2956 1747 
Q 2956 2369 2687 2733 
Q 2419 3097 1959 3097 
z
M 1959 3584 
Q 2709 3584 3137 3096 
Q 3566 2609 3566 1747 
Q 3566 888 3137 398 
Q 2709 -91 1959 -91 
Q 1206 -91 779 398 
Q 353 888 353 1747 
Q 353 2609 779 3096 
Q 1206 3584 1959 3584 
z
" transform="scale(0.015625)"/>
      <path id="DejaVuSans-6d" d="M 3328 2828 
Q 3544 3216 3844 3400 
Q 4144 3584 4550 3584 
Q 5097 3584 5394 3201 
Q 5691 2819 5691 2113 
L 5691 0 
L 5113 0 
L 5113 2094 
Q 5113 2597 4934 2840 
Q 4756 3084 4391 3084 
Q 3944 3084 3684 2787 
Q 3425 2491 3425 1978 
L 3425 0 
L 2847 0 
L 2847 2094 
Q 2847 2600 2669 2842 
Q 2491 3084 2119 3084 
Q 1678 3084 1418 2786 
Q 1159 2488 1159 1978 
L 1159 0 
L 581 0 
L 581 3500 
L 1159 3500 
L 1159 2956 
Q 1356 3278 1631 3431 
Q 1906 3584 2284 3584 
Q 2666 3584 2933 3390 
Q 3200 3197 3328 2828 
z
" transform="scale(0.015625)"/>
      <path id="DejaVuSans-69" d="M 603 3500 
L 1178 3500 
L 1178 0 
L 603 0 
L 603 3500 
z
M 603 4863 
L 1178 4863 
L 1178 4134 
L 603 4134 
L 603 4863 
z
" transform="scale(0.015625)"/>
      <path id="DejaVuSans-7a" d="M 353 3500 
L 3084 3500 
L 3084 2975 
L 922 459 
L 3084 459 
L 3084 0 
L 275 0 
L 275 525 
L 2438 3041 
L 353 3041 
L 353 3500 
z
" transform="scale(0.015625)"/>
      <path id="DejaVuSans-64" d="M 2906 2969 
L 2906 4863 
L 3481 4863 
L 3481 0 
L 2906 0 
L 2906 525 
Q 2725 213 2448 61 
Q 2172 -91 1784 -91 
Q 1150 -91 751 415 
Q 353 922 353 1747 
Q 353 2572 751 3078 
Q 1150 3584 1784 3584 
Q 2172 3584 2448 3432 
Q 2725 3281 2906 2969 
z
M 947 1747 
Q 947 1113 1208 752 
Q 1469 391 1925 391 
Q 2381 391 2643 752 
Q 2906 1113 2906 1747 
Q 2906 2381 2643 2742 
Q 2381 3103 1925 3103 
Q 1469 3103 1208 2742 
Q 947 2381 947 1747 
z
" transform="scale(0.015625)"/>
      <path id="DejaVuSans-44" d="M 1259 4147 
L 1259 519 
L 2022 519 
Q 2988 519 3436 956 
Q 3884 1394 3884 2338 
Q 3884 3275 3436 3711 
Q 2988 4147 2022 4147 
L 1259 4147 
z
M 628 4666 
L 1925 4666 
Q 3281 4666 3915 4102 
Q 4550 3538 4550 2338 
Q 4550 1131 3912 565 
Q 3275 0 1925 0 
L 628 0 
L 628 4666 
z
" transform="scale(0.015625)"/>
      <path id="DejaVuSans-73" d="M 2834 3397 
L 2834 2853 
Q 2591 2978 2328 3040 
Q 2066 3103 1784 3103 
Q 1356 3103 1142 2972 
Q 928 2841 928 2578 
Q 928 2378 1081 2264 
Q 1234 2150 1697 2047 
L 1894 2003 
Q 2506 1872 2764 1633 
Q 3022 1394 3022 966 
Q 3022 478 2636 193 
Q 2250 -91 1575 -91 
Q 1294 -91 989 -36 
Q 684 19 347 128 
L 347 722 
Q 666 556 975 473 
Q 1284 391 1588 391 
Q 1994 391 2212 530 
Q 2431 669 2431 922 
Q 2431 1156 2273 1281 
Q 2116 1406 1581 1522 
L 1381 1569 
Q 847 1681 609 1914 
Q 372 2147 372 2553 
Q 372 3047 722 3315 
Q 1072 3584 1716 3584 
Q 2034 3584 2315 3537 
Q 2597 3491 2834 3397 
z
" transform="scale(0.015625)"/>
      <path id="DejaVuSans-62" d="M 3116 1747 
Q 3116 2381 2855 2742 
Q 2594 3103 2138 3103 
Q 1681 3103 1420 2742 
Q 1159 2381 1159 1747 
Q 1159 1113 1420 752 
Q 1681 391 2138 391 
Q 2594 391 2855 752 
Q 3116 1113 3116 1747 
z
M 1159 2969 
Q 1341 3281 1617 3432 
Q 1894 3584 2278 3584 
Q 2916 3584 3314 3078 
Q 3713 2572 3713 1747 
Q 3713 922 3314 415 
Q 2916 -91 2278 -91 
Q 1894 -91 1617 61 
Q 1341 213 1159 525 
L 1159 0 
L 581 0 
L 581 4863 
L 1159 4863 
L 1159 2969 
z
" transform="scale(0.015625)"/>
      <path id="DejaVuSans-75" d="M 544 1381 
L 544 3500 
L 1119 3500 
L 1119 1403 
Q 1119 906 1312 657 
Q 1506 409 1894 409 
Q 2359 409 2629 706 
Q 2900 1003 2900 1516 
L 2900 3500 
L 3475 3500 
L 3475 0 
L 2900 0 
L 2900 538 
Q 2691 219 2414 64 
Q 2138 -91 1772 -91 
Q 1169 -91 856 284 
Q 544 659 544 1381 
z
M 1991 3584 
L 1991 3584 
z
" transform="scale(0.015625)"/>
      <path id="DejaVuSans-66" d="M 2375 4863 
L 2375 4384 
L 1825 4384 
Q 1516 4384 1395 4259 
Q 1275 4134 1275 3809 
L 1275 3500 
L 2222 3500 
L 2222 3053 
L 1275 3053 
L 1275 0 
L 697 0 
L 697 3053 
L 147 3053 
L 147 3500 
L 697 3500 
L 697 3744 
Q 697 4328 969 4595 
Q 1241 4863 1831 4863 
L 2375 4863 
z
" transform="scale(0.015625)"/>
      <path id="DejaVuSans-49" d="M 628 4666 
L 1259 4666 
L 1259 0 
L 628 0 
L 628 4666 
z
" transform="scale(0.015625)"/>
      <path id="DejaVuSans-45" d="M 628 4666 
L 3578 4666 
L 3578 4134 
L 1259 4134 
L 1259 2753 
L 3481 2753 
L 3481 2222 
L 1259 2222 
L 1259 531 
L 3634 531 
L 3634 0 
L 628 0 
L 628 4666 
z
" transform="scale(0.015625)"/>
      <path id="DejaVuSans-Oblique-45" d="M 1081 4666 
L 4031 4666 
L 3928 4134 
L 1606 4134 
L 1338 2753 
L 3566 2753 
L 3463 2222 
L 1234 2222 
L 909 531 
L 3284 531 
L 3181 0 
L 172 0 
L 1081 4666 
z
" transform="scale(0.015625)"/>
     </defs>
     <use xlink:href="#DejaVuSans-4e" transform="translate(0 0.015625)"/>
     <use xlink:href="#DejaVuSans-6f" transform="translate(74.804688 0.015625)"/>
     <use xlink:href="#DejaVuSans-72" transform="translate(135.986328 0.015625)"/>
     <use xlink:href="#DejaVuSans-6d" transform="translate(177.099609 0.015625)"/>
     <use xlink:href="#DejaVuSans-61" transform="translate(274.511719 0.015625)"/>
     <use xlink:href="#DejaVuSans-6c" transform="translate(335.791016 0.015625)"/>
     <use xlink:href="#DejaVuSans-69" transform="translate(363.574219 0.015625)"/>
     <use xlink:href="#DejaVuSans-7a" transform="translate(391.357422 0.015625)"/>
     <use xlink:href="#DejaVuSans-65" transform="translate(443.847656 0.015625)"/>
     <use xlink:href="#DejaVuSans-64" transform="translate(505.371094 0.015625)"/>
     <use xlink:href="#DejaVuSans-20" transform="translate(568.847656 0.015625)"/>
     <use xlink:href="#DejaVuSans-44" transform="translate(600.634766 0.015625)"/>
     <use xlink:href="#DejaVuSans-69" transform="translate(677.636719 0.015625)"/>
     <use xlink:href="#DejaVuSans-73" transform="translate(705.419922 0.015625)"/>
     <use xlink:href="#DejaVuSans-74" transform="translate(757.519531 0.015625)"/>
     <use xlink:href="#DejaVuSans-72" transform="translate(796.728516 0.015625)"/>
     <use xlink:href="#DejaVuSans-69" transform="translate(837.841797 0.015625)"/>
     <use xlink:href="#DejaVuSans-62" transform="translate(865.625 0.015625)"/>
     <use xlink:href="#DejaVuSans-75" transform="translate(929.101562 0.015625)"/>
     <use xlink:href="#DejaVuSans-74" transform="translate(992.480469 0.015625)"/>
     <use xlink:href="#DejaVuSans-69" transform="translate(1031.689453 0.015625)"/>
     <use xlink:href="#DejaVuSans-6f" transform="translate(1059.472656 0.015625)"/>
     <use xlink:href="#DejaVuSans-6e" transform="translate(1120.654297 0.015625)"/>
     <use xlink:href="#DejaVuSans-20" transform="translate(1184.033203 0.015625)"/>
     <use xlink:href="#DejaVuSans-6f" transform="translate(1215.820312 0.015625)"/>
     <use xlink:href="#DejaVuSans-66" transform="translate(1277.001953 0.015625)"/>
     <use xlink:href="#DejaVuSans-20" transform="translate(1312.207031 0.015625)"/>
     <use xlink:href="#DejaVuSans-49" transform="translate(1343.994141 0.015625)"/>
     <use xlink:href="#DejaVuSans-6e" transform="translate(1373.486328 0.015625)"/>
     <use xlink:href="#DejaVuSans-74" transform="translate(1436.865234 0.015625)"/>
     <use xlink:href="#DejaVuSans-65" transform="translate(1476.074219 0.015625)"/>
     <use xlink:href="#DejaVuSans-72" transform="translate(1537.597656 0.015625)"/>
     <use xlink:href="#DejaVuSans-61" transform="translate(1578.710938 0.015625)"/>
     <use xlink:href="#DejaVuSans-63" transform="translate(1639.990234 0.015625)"/>
     <use xlink:href="#DejaVuSans-74" transform="translate(1694.970703 0.015625)"/>
     <use xlink:href="#DejaVuSans-69" transform="translate(1734.179688 0.015625)"/>
     <use xlink:href="#DejaVuSans-6f" transform="translate(1761.962891 0.015625)"/>
     <use xlink:href="#DejaVuSans-6e" transform="translate(1823.144531 0.015625)"/>
     <use xlink:href="#DejaVuSans-20" transform="translate(1886.523438 0.015625)"/>
     <use xlink:href="#DejaVuSans-45" transform="translate(1918.310547 0.015625)"/>
     <use xlink:href="#DejaVuSans-6e" transform="translate(1981.494141 0.015625)"/>
     <use xlink:href="#DejaVuSans-65" transform="translate(2044.873047 0.015625)"/>
     <use xlink:href="#DejaVuSans-72" transform="translate(2106.396484 0.015625)"/>
     <use xlink:href="#DejaVuSans-67" transform="translate(2147.509766 0.015625)"/>
     <use xlink:href="#DejaVuSans-79" transform="translate(2210.986328 0.015625)"/>
     <use xlink:href="#DejaVuSans-20" transform="translate(2270.166016 0.015625)"/>
     <use xlink:href="#DejaVuSans-28" transform="translate(2301.953125 0.015625)"/>
     <use xlink:href="#DejaVuSans-Oblique-45" transform="translate(2340.966797 0.015625)"/>
     <use xlink:href="#DejaVuSans-69" transform="translate(2404.150391 -16.390625) scale(0.7)"/>
     <use xlink:href="#DejaVuSans-6e" transform="translate(2423.598633 -16.390625) scale(0.7)"/>
     <use xlink:href="#DejaVuSans-74" transform="translate(2467.963867 -16.390625) scale(0.7)"/>
     <use xlink:href="#DejaVuSans-29" transform="translate(2498.144531 0.015625)"/>
     <use xlink:href="#DejaVuSans-20" transform="translate(2537.158203 0.015625)"/>
     <use xlink:href="#DejaVuSans-66" transform="translate(2568.945312 0.015625)"/>
     <use xlink:href="#DejaVuSans-6f" transform="translate(2604.150391 0.015625)"/>
     <use xlink:href="#DejaVuSans-72" transform="translate(2665.332031 0.015625)"/>
     <use xlink:href="#DejaVuSans-20" transform="translate(2706.445312 0.015625)"/>
     <use xlink:href="#DejaVuSans-44" transform="translate(2738.232422 0.015625)"/>
     <use xlink:href="#DejaVuSans-69" transform="translate(2815.234375 0.015625)"/>
     <use xlink:href="#DejaVuSans-66" transform="translate(2843.017578 0.015625)"/>
     <use xlink:href="#DejaVuSans-66" transform="translate(2878.222656 0.015625)"/>
     <use xlink:href="#DejaVuSans-65" transform="translate(2913.427734 0.015625)"/>
     <use xlink:href="#DejaVuSans-72" transform="translate(2974.951172 0.015625)"/>
     <use xlink:href="#DejaVuSans-65" transform="translate(3016.064453 0.015625)"/>
     <use xlink:href="#DejaVuSans-6e" transform="translate(3077.587891 0.015625)"/>
     <use xlink:href="#DejaVuSans-74" transform="translate(3140.966797 0.015625)"/>
     <use xlink:href="#DejaVuSans-20" transform="translate(3180.175781 0.015625)"/>
     <use xlink:href="#DejaVuSans-4d" transform="translate(3211.962891 0.015625)"/>
     <use xlink:href="#DejaVuSans-65" transform="translate(3298.242188 0.015625)"/>
     <use xlink:href="#DejaVuSans-74" transform="translate(3359.765625 0.015625)"/>
     <use xlink:href="#DejaVuSans-61" transform="translate(3398.974609 0.015625)"/>
     <use xlink:href="#DejaVuSans-6c" transform="translate(3460.253906 0.015625)"/>
     <use xlink:href="#DejaVuSans-20" transform="translate(3488.037109 0.015625)"/>
     <use xlink:href="#DejaVuSans-54" transform="translate(3519.824219 0.015625)"/>
     <use xlink:href="#DejaVuSans-79" transform="translate(3580.908203 0.015625)"/>
     <use xlink:href="#DejaVuSans-70" transform="translate(3640.087891 0.015625)"/>
     <use xlink:href="#DejaVuSans-65" transform="translate(3703.564453 0.015625)"/>
     <use xlink:href="#DejaVuSans-73" transform="translate(3765.087891 0.015625)"/>
    </g>
   </g>
   <g id="legend_1">
    <g id="patch_78">
     <path d="M 152.4 282.742813 
L 265.0525 282.742813 
Q 267.4525 282.742813 267.4525 280.342813 
L 267.4525 138.697187 
Q 267.4525 136.297188 265.0525 136.297188 
L 152.4 136.297188 
Q 150 136.297188 150 138.697187 
L 150 280.342813 
Q 150 282.742813 152.4 282.742813 
z
" style="fill: #ffffff; opacity: 0.8; stroke: #cccccc; stroke-linejoin: miter"/>
    </g>
    <g id="text_41">
     <!-- Cavity 3 Values -->
     <g transform="translate(154.8 151.735) scale(0.14 -0.14)">
      <defs>
       <path id="DejaVuSans-43" d="M 4122 4306 
L 4122 3641 
Q 3803 3938 3442 4084 
Q 3081 4231 2675 4231 
Q 1875 4231 1450 3742 
Q 1025 3253 1025 2328 
Q 1025 1406 1450 917 
Q 1875 428 2675 428 
Q 3081 428 3442 575 
Q 3803 722 4122 1019 
L 4122 359 
Q 3791 134 3420 21 
Q 3050 -91 2638 -91 
Q 1578 -91 968 557 
Q 359 1206 359 2328 
Q 359 3453 968 4101 
Q 1578 4750 2638 4750 
Q 3056 4750 3426 4639 
Q 3797 4528 4122 4306 
z
" transform="scale(0.015625)"/>
       <path id="DejaVuSans-76" d="M 191 3500 
L 800 3500 
L 1894 563 
L 2988 3500 
L 3597 3500 
L 2284 0 
L 1503 0 
L 191 3500 
z
" transform="scale(0.015625)"/>
       <path id="DejaVuSans-56" d="M 1831 0 
L 50 4666 
L 709 4666 
L 2188 738 
L 3669 4666 
L 4325 4666 
L 2547 0 
L 1831 0 
z
" transform="scale(0.015625)"/>
      </defs>
      <use xlink:href="#DejaVuSans-43"/>
      <use xlink:href="#DejaVuSans-61" x="69.824219"/>
      <use xlink:href="#DejaVuSans-76" x="131.103516"/>
      <use xlink:href="#DejaVuSans-69" x="190.283203"/>
      <use xlink:href="#DejaVuSans-74" x="218.066406"/>
      <use xlink:href="#DejaVuSans-79" x="257.275391"/>
      <use xlink:href="#DejaVuSans-20" x="316.455078"/>
      <use xlink:href="#DejaVuSans-33" x="348.242188"/>
      <use xlink:href="#DejaVuSans-20" x="411.865234"/>
      <use xlink:href="#DejaVuSans-56" x="443.652344"/>
      <use xlink:href="#DejaVuSans-61" x="504.310547"/>
      <use xlink:href="#DejaVuSans-6c" x="565.589844"/>
      <use xlink:href="#DejaVuSans-75" x="593.373047"/>
      <use xlink:href="#DejaVuSans-65" x="656.751953"/>
      <use xlink:href="#DejaVuSans-73" x="718.275391"/>
     </g>
    </g>
    <g id="patch_79">
     <path d="M 188.10875 169.764688 
L 212.10875 169.764688 
L 212.10875 161.364688 
L 188.10875 161.364688 
z
" style="fill: #e9d4d0"/>
    </g>
    <g id="text_42">
     <!-- 0 -->
     <g transform="translate(221.70875 169.764688) scale(0.12 -0.12)">
      <use xlink:href="#DejaVuSans-30"/>
     </g>
    </g>
    <g id="patch_80">
     <path d="M 188.10875 187.378438 
L 212.10875 187.378438 
L 212.10875 178.978438 
L 188.10875 178.978438 
z
" style="fill: #d8b3b6"/>
    </g>
    <g id="text_43">
     <!-- 1 -->
     <g transform="translate(221.70875 187.378438) scale(0.12 -0.12)">
      <use xlink:href="#DejaVuSans-31"/>
     </g>
    </g>
    <g id="patch_81">
     <path d="M 188.10875 204.992188 
L 212.10875 204.992188 
L 212.10875 196.592188 
L 188.10875 196.592188 
z
" style="fill: #c08fa0"/>
    </g>
    <g id="text_44">
     <!-- 2 -->
     <g transform="translate(221.70875 204.992188) scale(0.12 -0.12)">
      <use xlink:href="#DejaVuSans-32"/>
     </g>
    </g>
    <g id="patch_82">
     <path d="M 188.10875 222.605938 
L 212.10875 222.605938 
L 212.10875 214.205938 
L 188.10875 214.205938 
z
" style="fill: #a16f8d"/>
    </g>
    <g id="text_45">
     <!-- 3 -->
     <g transform="translate(221.70875 222.605938) scale(0.12 -0.12)">
      <use xlink:href="#DejaVuSans-33"/>
     </g>
    </g>
    <g id="patch_83">
     <path d="M 188.10875 240.219688 
L 212.10875 240.219688 
L 212.10875 231.819688 
L 188.10875 231.819688 
z
" style="fill: #7c5378"/>
    </g>
    <g id="text_46">
     <!-- 4 -->
     <g transform="translate(221.70875 240.219688) scale(0.12 -0.12)">
      <use xlink:href="#DejaVuSans-34"/>
     </g>
    </g>
    <g id="patch_84">
     <path d="M 188.10875 257.833438 
L 212.10875 257.833438 
L 212.10875 249.433438 
L 188.10875 249.433438 
z
" style="fill: #53395c"/>
    </g>
    <g id="text_47">
     <!-- 5 -->
     <g transform="translate(221.70875 257.833438) scale(0.12 -0.12)">
      <use xlink:href="#DejaVuSans-35"/>
     </g>
    </g>
    <g id="patch_85">
     <path d="M 188.10875 275.447188 
L 212.10875 275.447188 
L 212.10875 267.047188 
L 188.10875 267.047188 
z
" style="fill: #2d223a"/>
    </g>
    <g id="text_48">
     <!-- 6 -->
     <g transform="translate(221.70875 275.447188) scale(0.12 -0.12)">
      <use xlink:href="#DejaVuSans-36"/>
     </g>
    </g>
   </g>
  </g>
 </g>
 <defs>
  <clipPath id="p5dd6714727">
   <rect x="144" y="51.84" width="892.8" height="315.36"/>
  </clipPath>
 </defs>
</svg>
